<svg width="51" height="31" viewBox="0 0 51 31" fill="none" xmlns="http://www.w3.org/2000/svg">
<g clip-path="url(#clip0_778_12246)">
<path fill-rule="evenodd" clip-rule="evenodd" d="M47.175 3.13555e-07C44.625 5.47598e-07 17.6271 -4.96987e-07 2.55 3.13555e-07C1.275 3.82098e-07 0 1.24 0 2.48V27.28C-1.47581e-07 29.76 1.275 31 3.825 31C18.0486 31 44.625 31 47.175 31C49.725 31 51 29.76 51 27.28V3.72C51 1.24 49.725 3.13555e-07 47.175 3.13555e-07Z" fill="#306FC5"/>
<path fill-rule="evenodd" clip-rule="evenodd" d="M4.30788 11.3539L3.32015 9.01314L2.33805 11.3539H4.30788ZM26.0676 10.4218C25.8693 10.5389 25.6347 10.5428 25.3537 10.5428H23.6006V9.2386H25.3776C25.6291 9.2386 25.8915 9.24958 26.0619 9.34451C26.2491 9.43005 26.365 9.61211 26.365 9.8636C26.365 10.1202 26.2548 10.3267 26.0676 10.4218C26.0676 10.4218 26.2548 10.3267 26.0676 10.4218ZM38.5742 11.3539L37.5755 9.01314L36.5823 11.3539H38.5742ZM15.2611 13.8876H13.7817L13.7762 9.28889L11.6837 13.8876H10.4166L8.31856 9.28482V13.8876H5.38339L4.82888 12.5779H1.82415L1.264 13.8876H-0.303377L2.28087 8.01586H4.42498L6.87938 13.5752V8.01586H9.23473L11.1233 11.9991L12.8583 8.01586H15.2609V13.8876H15.2611ZM21.1575 13.8876H16.3366V8.01586H21.1575V9.2386H17.7798V10.297H21.0765V11.5006H17.7798V12.6732H21.1575V13.8876ZM27.9547 9.59723C27.9547 10.5334 27.3123 11.0171 26.9379 11.1623C27.2536 11.2792 27.5233 11.4857 27.6517 11.6568C27.8555 11.9488 27.8906 12.2097 27.8906 12.7341V13.8876H26.4351L26.4296 13.1471C26.4296 12.7938 26.4644 12.2857 26.2018 12.0032C25.9909 11.7967 25.6695 11.7519 25.15 11.7519H23.6008V13.8876H22.1578V8.01586H25.477C26.2146 8.01586 26.7579 8.03481 27.2245 8.2971C27.681 8.55939 27.9547 8.9423 27.9547 9.59723C27.9547 9.59723 27.9547 8.9423 27.9547 9.59723ZM30.2642 13.8876H28.7917V8.01586H30.2642V13.8876ZM47.3471 13.8876H45.3021L42.5667 9.48052V13.8876H39.6277L39.0661 12.5779H36.0682L35.5234 13.8876H33.8347C33.1333 13.8876 32.2451 13.7367 31.7422 13.2382C31.235 12.7396 30.9711 12.0643 30.9711 10.9965C30.9711 10.1257 31.1288 9.32963 31.7491 8.70055C32.2156 8.23193 32.9462 8.01586 33.9407 8.01586H35.3378V9.27402H33.97C33.4434 9.27402 33.146 9.35017 32.8596 9.62185C32.6135 9.86909 32.4447 10.3365 32.4447 10.9519C32.4447 11.581 32.5733 12.0346 32.8415 12.3309C33.0637 12.5632 33.4674 12.6337 33.8473 12.6337H34.4954L36.5293 8.01603H38.6916L41.1349 13.5699V8.01603H43.3322L45.8689 12.1054V8.01603H47.3471V13.8876ZM-0.32013 15.0409H2.14557L2.70154 13.7367H3.94622L4.50073 15.0409H9.35219V14.0438L9.78523 15.0452H12.3037L12.7368 14.029V15.0409H24.7936L24.7879 12.9001H25.0212C25.1846 12.9056 25.2323 12.9203 25.2323 13.1826V15.0409H31.4681V14.5426C31.9711 14.8047 32.7534 15.0409 33.7828 15.0409H36.4062L36.9677 13.7367H38.2123L38.7614 15.0409H43.8168V13.8021L44.5824 15.0409H48.6335V6.85156H44.6243V7.81874L44.0628 6.85156H39.9489V7.81874L39.4334 6.85156H33.8764C32.9462 6.85156 32.1286 6.97784 31.4681 7.32975V6.85156H27.6333V7.32975C27.213 6.96704 26.6403 6.85156 26.0035 6.85156H11.9936L11.0536 8.96674L10.0883 6.85156H5.67549V7.81874L5.19073 6.85156H1.42735L-0.320312 10.7452V15.0409H-0.32013ZM51.011 19.3648H48.3809C48.1183 19.3648 47.9438 19.3744 47.7969 19.4709C47.6446 19.566 47.586 19.7072 47.586 19.8935C47.586 20.115 47.7146 20.2657 47.9016 20.3309C48.0538 20.3825 48.2174 20.3975 48.4577 20.3975L49.2399 20.4179C50.0291 20.4368 50.556 20.5688 50.8772 20.8906C50.9356 20.9354 50.9708 20.9857 51.011 21.036V19.3648ZM51.011 23.2369C50.6605 23.7354 49.9774 23.9882 49.0527 23.9882H46.2658V22.7288H49.0414C49.3167 22.7288 49.5094 22.6935 49.6254 22.5833C49.7259 22.4925 49.796 22.3605 49.796 22.2003C49.796 22.0292 49.7259 21.8933 49.6198 21.8119C49.515 21.7223 49.3626 21.6815 49.1113 21.6815C47.7563 21.6367 46.0658 21.7223 46.0658 19.8637C46.0658 19.0118 46.6219 18.1151 48.1363 18.1151H51.0109V16.9466H48.3401C47.5341 16.9466 46.9486 17.1343 46.534 17.4262V16.9466H42.5836C41.9519 16.9466 41.2103 17.0989 40.8596 17.4262V16.9466H33.8052V17.4262C33.2438 17.0323 32.2965 16.9466 31.8593 16.9466H27.2061V17.4262C26.762 17.0079 25.7742 16.9466 25.1722 16.9466H19.9645L18.7728 18.2009L17.6567 16.9466H9.87756V25.1416H17.5103L18.7382 23.8675L19.895 25.1416L24.5998 25.1457V23.2179H25.0624C25.6866 23.2273 26.4229 23.2029 27.0724 22.9298V25.1415H30.9531V23.0056H31.1403C31.3792 23.0056 31.4027 23.0151 31.4027 23.2473V25.1413H43.1915C43.9399 25.1413 44.7222 24.955 45.1555 24.6169V25.1413H48.8948C49.6729 25.1413 50.4329 25.0352 51.011 24.7635V23.2369ZM45.2545 20.8906C45.5355 21.1734 45.6861 21.5305 45.6861 22.1349C45.6861 23.3984 44.8745 23.9882 43.4191 23.9882H40.6083V22.7288H43.4078C43.6815 22.7288 43.8756 22.6935 43.9973 22.5833C44.0965 22.4925 44.1677 22.3605 44.1677 22.2003C44.1677 22.0292 44.0907 21.8933 43.9916 21.8119C43.8813 21.7223 43.729 21.6815 43.4777 21.6815C42.1281 21.6367 40.438 21.7223 40.438 19.8637C40.438 19.0118 40.9884 18.1151 42.5013 18.1151H45.3944V19.3652H42.7471C42.4847 19.3652 42.3141 19.3747 42.1689 19.4712C42.0109 19.5663 41.9522 19.7075 41.9522 19.8938C41.9522 20.1154 42.0864 20.2661 42.268 20.3313C42.4202 20.3828 42.5838 20.3979 42.8296 20.3979L43.6065 20.4182C44.3899 20.4368 44.9276 20.5686 45.2545 20.8906C45.2545 20.8906 44.9276 20.5686 45.2545 20.8906ZM32.2326 20.5279C32.0395 20.6393 31.8008 20.6488 31.52 20.6488H29.7669V19.3297H31.5438C31.8008 19.3297 32.0579 19.335 32.2326 19.4358C32.4196 19.5309 32.5314 19.7128 32.5314 19.9641C32.5314 20.2154 32.4196 20.4179 32.2326 20.5279C32.2326 20.5279 32.4196 20.4179 32.2326 20.5279ZM33.1041 21.2588C33.4254 21.3741 33.688 21.5808 33.8111 21.7518C34.0148 22.0386 34.0443 22.3062 34.0502 22.8239V23.9882H32.6013V23.2533C32.6013 22.9 32.6363 22.3768 32.3681 22.1037C32.1572 21.8933 31.8358 21.843 31.3093 21.843H29.7671V23.9882H28.3169V18.115H31.6487C32.3793 18.115 32.9115 18.1463 33.3851 18.3921C33.8406 18.6597 34.127 19.0264 34.127 19.6963C34.1268 20.6338 33.484 21.1121 33.1041 21.2588C33.1041 21.2588 33.484 21.1121 33.1041 21.2588ZM34.9272 18.115H39.7437V19.3296H36.3643V20.3973H39.6612V21.5956H36.3643V22.7642L39.7437 22.7695V23.9882H34.9272V18.115ZM25.1906 20.8254H23.3256V19.3297H25.2073C25.7283 19.3297 26.09 19.5362 26.09 20.0498C26.09 20.5578 25.7451 20.8254 25.1906 20.8254ZM21.8883 23.454L19.6726 21.0617L21.8883 18.7453V23.454ZM16.1664 22.7642H12.6182V21.5956H15.7865V20.3973H12.6182V19.3296H16.2363L17.8148 21.0411L16.1664 22.7642ZM27.6393 20.0498C27.6393 21.6813 26.3877 22.0182 25.1263 22.0182H23.3256V23.9882H20.5207L18.7437 22.0439L16.897 23.9882H11.1807V18.115H16.9849L18.7605 20.0401L20.5961 18.115H25.2073C26.3526 18.115 27.6393 18.4233 27.6393 20.0498C27.6393 20.0498 27.6393 18.4233 27.6393 20.0498Z" fill="white"/>
</g>
<defs>
<clipPath id="clip0_778_12246">
<rect width="51" height="31" fill="white"/>
</clipPath>
</defs>
</svg>
