<svg width="30" height="28" viewBox="0 0 30 28" fill="none" xmlns="http://www.w3.org/2000/svg">
<path d="M24 15.1038L11 13L12.7234 21L24 15.1038Z" fill="#D12053"/>
<path d="M24 15L14.2022 2L11 13.0566L24 15Z" fill="#E2136E"/>
<path d="M10.6909 13L0 0L14 1.59129L10.6909 13Z" fill="#D12053"/>
<path d="M6 8L0 2H1.57936L6 8Z" fill="#9E1638"/>
<path d="M27 9L24.3292 15L20 10.0408L27 9Z" fill="#D12053"/>
<path d="M14 21L23.5973 17.206L24 16L14 21Z" fill="#E2136E"/>
<path d="M6 28L10.6442 14L13 23.1089L6 28Z" fill="#9E1638"/>
<path d="M27.1093 9L26 11L30 10.9564L27.1093 9Z" fill="#E2136E"/>
</svg>
