<svg width="51" height="33" viewBox="0 0 51 33" fill="none" xmlns="http://www.w3.org/2000/svg">
<path fill-rule="evenodd" clip-rule="evenodd" d="M47.175 3.33784e-07C44.625 5.82927e-07 17.6271 -5.29051e-07 2.55 3.33784e-07C1.275 4.0675e-07 0 1.32 0 2.64V29.04C-1.47581e-07 31.68 1.275 33 3.825 33C18.0486 33 44.625 33 47.175 33C49.725 33 51 31.68 51 29.04V3.96C51 1.32 49.725 3.33784e-07 47.175 3.33784e-07Z" fill="#265697"/>
<path fill-rule="evenodd" clip-rule="evenodd" d="M47.6696 16.6657C47.6717 24.3342 41.7326 30.5519 34.4046 30.5539C27.0763 30.5558 21.1348 24.3412 21.1328 16.6727V16.6657C21.1309 8.99739 27.0699 2.77938 34.3977 2.77734C41.7259 2.77531 47.6676 8.99018 47.6696 16.6586V16.6657C47.6696 16.6657 47.6696 16.6632 47.6696 16.6657Z" fill="#DFAC16"/>
<path fill-rule="evenodd" clip-rule="evenodd" d="M16.5189 2.77937C9.23422 2.82779 3.33594 9.02966 3.33594 16.6641C3.33594 24.3283 9.2802 30.5487 16.6044 30.5487C20.0419 30.5487 23.1752 29.1779 25.533 26.931C25.5328 26.931 25.5325 26.9307 25.5319 26.9304H25.5348C26.0176 26.47 26.4679 25.9733 26.8818 25.4436H24.1634C23.8004 24.9848 23.4705 24.5067 23.1741 24.0134H27.8625C28.1476 23.5359 28.4058 23.0401 28.6349 22.5266H22.4001C22.1876 22.0499 22.0031 21.5624 21.8456 21.0678H29.19C29.6326 19.6838 29.8728 18.2031 29.8728 16.664C29.8728 15.6435 29.7671 14.6486 29.5671 13.6907H21.4561C21.5566 13.1977 21.6834 12.7106 21.8346 12.2321H29.1817C29.0175 11.7228 28.8267 11.2265 28.6097 10.7454H22.3993C22.6234 10.2446 22.8772 9.75739 23.1607 9.28697H27.8455C27.5338 8.76718 27.1887 8.27058 26.8157 7.80016H24.2037C24.6075 7.30278 25.0521 6.83439 25.5348 6.39766C23.1768 4.15053 20.0426 2.77937 16.6044 2.77937C16.5758 2.77937 16.5475 2.77921 16.5189 2.77937C16.5189 2.77937 16.5475 2.77921 16.5189 2.77937Z" fill="#BF3126"/>
<path fill-rule="evenodd" clip-rule="evenodd" d="M21.3722 20.201L21.549 18.9444C21.4524 18.9444 21.3103 18.9876 21.185 18.9876C20.6932 18.9876 20.639 18.714 20.6703 18.5117L21.0676 15.9477H21.815L21.9954 14.5577H21.2907L21.4342 13.6934H20.0214C19.9903 13.726 19.1875 18.5548 19.1875 19.1427C19.1875 20.0132 19.6546 20.4009 20.3132 20.3946C20.8289 20.3901 21.2305 20.2408 21.3722 20.201C21.3722 20.201 21.2305 20.2408 21.3722 20.201Z" fill="white"/>
<path fill-rule="evenodd" clip-rule="evenodd" d="M21.8203 17.8046C21.8203 19.8938 23.1381 20.3903 24.2608 20.3903C25.297 20.3903 25.753 20.1478 25.753 20.1478L26.0019 18.722C26.0019 18.722 25.2136 19.0854 24.5017 19.0854C22.9848 19.0854 23.2504 17.9018 23.2504 17.9018H26.1214C26.1214 17.9018 26.3068 16.9439 26.3068 16.5535C26.3068 15.5795 25.8435 14.3926 24.2924 14.3926C22.8718 14.3929 21.8203 15.9946 21.8203 17.8046C21.8203 17.8046 21.8203 15.9946 21.8203 17.8046ZM24.2977 15.7166C25.095 15.7166 24.948 16.6541 24.948 16.73H23.3795C23.3795 16.6331 23.5277 15.7166 24.2977 15.7166C24.2977 15.7166 23.5277 15.7166 24.2977 15.7166Z" fill="white"/>
<path fill-rule="evenodd" clip-rule="evenodd" d="M33.2394 20.2002L33.4922 18.5885C33.4922 18.5885 32.799 18.9522 32.3232 18.9522C31.3211 18.9522 30.9192 18.1515 30.9192 17.2912C30.9192 15.546 31.7814 14.5858 32.7413 14.5858C33.4612 14.5858 34.0389 15.0088 34.0389 15.0088L34.2695 13.4428C34.2695 13.4428 33.4128 13.0801 32.6784 13.0801C31.0475 13.0801 29.4609 14.5606 29.4609 17.3412C29.4609 19.1849 30.3176 20.4027 32.0035 20.4027C32.4802 20.4029 33.2394 20.2002 33.2394 20.2002Z" fill="white"/>
<path fill-rule="evenodd" clip-rule="evenodd" d="M13.6021 14.416C12.6334 14.416 11.8908 14.7418 11.8908 14.7418L11.6858 16.0153C11.6858 16.0153 12.2987 15.7547 13.2252 15.7547C13.7512 15.7547 14.1361 15.8166 14.1361 16.264C14.1361 16.5357 14.0889 16.636 14.0889 16.636C14.0889 16.636 13.674 16.5997 13.4819 16.5997C12.2601 16.5997 10.9766 17.1453 10.9766 18.7904C10.9766 20.0867 11.8186 20.3841 12.3405 20.3841C13.3372 20.3841 13.7668 19.7073 13.7897 19.7052L13.7432 20.2702H14.9871L15.5421 16.1988C15.5421 14.4716 14.1023 14.416 13.6021 14.416ZM13.9047 17.7309C13.9317 17.9796 13.7557 19.1453 12.9052 19.1453C12.4664 19.1453 12.3523 18.7946 12.3523 18.5872C12.3523 18.1826 12.5624 17.6968 13.5976 17.6968C13.8384 17.6971 13.8642 17.724 13.9047 17.7309C13.9047 17.7309 13.8642 17.724 13.9047 17.7309Z" fill="white"/>
<path fill-rule="evenodd" clip-rule="evenodd" d="M16.8665 20.353C17.1847 20.353 19.0038 20.4377 19.0038 18.4734C19.0038 16.637 17.3199 16.9997 17.3199 16.262C17.3199 15.8947 17.5944 15.779 18.0961 15.779C18.2952 15.779 19.0615 15.8453 19.0615 15.8453L19.2397 14.5399C19.2397 14.5401 18.7437 14.4238 17.9363 14.4238C16.8912 14.4238 15.8304 14.8604 15.8304 16.3541C15.8304 18.0467 17.5992 17.8768 17.5992 18.5898C17.5992 19.0657 17.105 19.1044 16.7242 19.1044C16.0652 19.1044 15.4717 18.8678 15.4696 18.8791L15.2812 20.1713C15.3154 20.1822 15.6814 20.353 16.8665 20.353C16.8665 20.353 15.6814 20.353 16.8665 20.353Z" fill="white"/>
<path fill-rule="evenodd" clip-rule="evenodd" d="M44.9486 13.2445L44.6438 15.2232C44.6438 15.2232 44.1121 14.4546 43.2796 14.4546C41.9852 14.4546 40.9062 16.0878 40.9062 17.9643C40.9062 19.1756 41.4817 20.3625 42.6582 20.3625C43.5044 20.3625 43.9735 19.7451 43.9735 19.7451L43.9114 20.2724H45.2855L46.3647 13.2422L44.9486 13.2445ZM44.2925 17.1026C44.2925 17.8834 43.9231 18.9265 43.1571 18.9265C42.6487 18.9265 42.4105 18.4799 42.4105 17.7789C42.4105 16.6328 42.9024 15.8765 43.5231 15.8765C44.0316 15.8764 44.2925 16.242 44.2925 17.1026C44.2925 17.1026 44.2925 16.242 44.2925 17.1026Z" fill="white"/>
<path fill-rule="evenodd" clip-rule="evenodd" d="M5.95586 20.2779L6.81587 14.9703L6.9421 20.2779H7.91547L9.73117 14.9703L8.92687 20.2779H10.3731L11.487 13.2383H9.25047L7.85766 17.5575L7.78519 13.2383H5.7236L4.59375 20.2779H5.95586Z" fill="white"/>
<path fill-rule="evenodd" clip-rule="evenodd" d="M27.7164 20.2884C28.1276 17.8413 28.2038 15.8543 29.1851 16.218C29.3569 15.2709 29.5227 14.9045 29.7101 14.5036C29.7101 14.5036 29.6222 14.4844 29.4377 14.4844C28.8051 14.4844 28.3363 15.3889 28.3363 15.3889L28.4623 14.5582H27.1469L26.2656 20.2884H27.7164Z" fill="white"/>
<path fill-rule="evenodd" clip-rule="evenodd" d="M36.5004 14.416C35.5317 14.416 34.7891 14.7418 34.7891 14.7418L34.5842 16.0153C34.5842 16.0153 35.1971 15.7547 36.1236 15.7547C36.6497 15.7547 37.0342 15.8166 37.0342 16.264C37.0342 16.5357 36.9874 16.636 36.9874 16.636C36.9874 16.636 36.5724 16.5997 36.3801 16.5997C35.1585 16.5997 33.875 17.1453 33.875 18.7904C33.875 20.0867 34.7169 20.3841 35.2388 20.3841C36.2355 20.3841 36.6651 19.7073 36.6879 19.7052L36.6416 20.2702H37.8856L38.4404 16.1988C38.4405 14.4716 37.0005 14.416 36.5004 14.416ZM36.8035 17.7309C36.8304 17.9796 36.6543 19.1453 35.8035 19.1453C35.3647 19.1453 35.2509 18.7946 35.2509 18.5872C35.2509 18.1826 35.461 17.6968 36.496 17.6968C36.7368 17.6971 36.7624 17.724 36.8035 17.7309C36.8035 17.7309 36.7624 17.724 36.8035 17.7309Z" fill="white"/>
<path fill-rule="evenodd" clip-rule="evenodd" d="M39.5834 20.2884C39.9948 17.8413 40.071 15.8543 41.052 16.218C41.2241 15.2709 41.39 14.9045 41.5773 14.5036C41.5773 14.5036 41.4894 14.4844 41.3049 14.4844C40.6722 14.4844 40.2035 15.3889 40.2035 15.3889L40.3295 14.5582H39.0141L38.1328 20.2884H39.5834Z" fill="white"/>
</svg>
