<svg width="24" height="31" viewBox="0 0 24 31" fill="none" xmlns="http://www.w3.org/2000/svg">
<path d="M8.73701 21H0.262987C0.116883 21 0 21.1124 0 21.2528V21.8708C0 22.0112 0.116883 22.1236 0.262987 22.1236H6.54545V25.4663C6.37013 25.2135 6.16558 24.9888 5.93182 24.764C5.2013 24.0337 4.38312 23.6685 3.56494 23.6685C2.92208 23.6685 2.33766 23.9775 1.89935 24.5674C1.5487 25.0449 1.31494 25.6067 1.31494 26.1124C1.31494 26.6461 1.4026 27.3202 1.81169 27.9382C2.33766 28.6966 3.15584 28.9213 3.88636 28.9213C4.85065 28.9213 5.66883 28.2753 5.66883 27.4607C5.66883 26.9831 5.40584 26.5618 4.93831 26.309L4.47078 26.0562V26.7303C4.44156 26.8989 4.09091 27.2079 3.71104 27.2079C3.38961 27.2079 3.06818 27.0674 2.89286 26.8989C2.74675 26.7584 2.71753 26.5337 2.71753 26.3652C2.71753 26.1405 2.80519 25.9157 2.98052 25.691C3.18507 25.4663 3.38961 25.3539 3.71104 25.3539C4.55844 25.3258 5.25974 25.7191 5.84416 26.5337C6.31169 27.2079 6.54545 27.8539 6.54545 28.5562L6.57468 30.2416L7.83117 30.9719C7.86039 31 7.91883 31 7.97727 31C8.12338 31 8.24026 30.8876 8.24026 30.7472V22.1517H8.73701C8.88312 22.1517 9 22.0393 9 21.8989V21.2809C9 21.1124 8.88312 21 8.73701 21Z" fill="#EC1C24"/>
<path d="M23.7517 21.1683H13.6276C13.4897 21.1683 13.3793 21.2788 13.3793 21.4168V22.5491C12.4138 21.5273 11.531 21.0026 10.731 21.0026C9.98621 20.975 9.32414 21.1683 8.82759 21.5825C8.30345 21.9968 8 22.4939 8 23.0739C8 24.8414 9.98621 24.8414 10.4828 24.5652C10.5655 24.51 10.6759 24.4547 10.8138 24.4547C11.2276 24.4547 11.3655 24.7585 11.3655 25.0347C11.3655 25.449 10.7862 25.808 10.069 25.808C9.68276 25.808 9.43448 25.6975 9.26897 25.4766L8.96552 25.0071L8.74483 25.5318C8.68965 25.6699 8.63448 25.808 8.63448 26.0013C8.63448 26.4156 8.85517 26.8022 9.21379 27.1336C9.57241 27.4374 10.0138 27.6031 10.4828 27.6031C11.2276 27.6031 11.8621 27.3269 12.2759 26.7746C12.6069 26.3327 12.7724 25.808 12.7724 25.228C12.7724 24.8966 12.6621 24.5652 12.3862 24.1786C12.0552 23.7091 11.669 23.4881 11.2276 23.4881C11.0621 23.4881 10.869 23.5434 10.6759 23.5986C10.5931 23.6262 10.4552 23.6538 10.4276 23.6538C10.3724 23.6538 10.2345 23.6262 10.1517 23.5157C10.0966 23.4605 9.98621 23.3224 9.98621 23.1291C10.0138 22.6872 10.4 22.2454 11.0897 22.2454H11.1172C11.5862 22.2454 12.0552 22.4663 12.5241 22.9082C12.8828 23.2396 13.1586 23.5986 13.3793 23.9852V30.282L14.5655 30.9724C14.5931 31 14.6483 31 14.7034 31C14.8414 31 14.9517 30.8895 14.9517 30.7514V22.3006H16.7448V27.7688L18.1793 28.3488C18.2069 28.3488 18.2345 28.3764 18.2621 28.3764C18.4 28.3764 18.5103 28.2659 18.5103 28.1554V28.1002C18.7586 26.4984 19.4483 25.3661 20.6345 24.7033V25.0071C20.6345 25.228 20.6621 25.8356 20.6621 26.167C20.6621 26.3603 20.6897 26.4984 20.6897 26.6089C20.6897 27.2164 20.7724 28.2107 20.9931 28.9011C21.3793 30.2543 22.0414 30.5581 22.5379 30.5857H22.5655C22.8414 30.5857 23.0621 30.5029 23.2276 30.3648C23.3103 30.282 23.4207 30.1163 23.4207 29.8401C23.4207 29.5915 23.3931 29.3982 23.3103 29.2601L23.2 29.0668L22.9793 29.122C22.731 29.1773 22.6483 29.1773 22.6207 29.1773H22.5655C22.5103 29.1773 22.4828 29.1773 22.4552 29.1496C22.3724 29.122 22.2345 28.9839 22.1241 28.5421C22.0414 28.2107 22.0138 27.7964 22.0138 27.5479C22.0138 25.7804 22.3724 24.4547 22.9517 24.1509L22.9793 24.1233C23.0621 24.0681 23.1172 23.9852 23.1172 23.9024C23.1172 23.8472 23.1172 23.8195 23.0897 23.7919V23.7091C22.8138 23.1567 22.2345 22.7701 21.4345 22.5491L21.3793 22.5215H21.3241C20.6897 22.632 19.9448 23.0739 19.0069 23.8472C18.7586 24.0405 18.5379 24.2614 18.3172 24.4547V22.273H23.7517C23.8897 22.273 24 22.1625 24 22.0244V21.4168C24 21.2788 23.8897 21.1683 23.7517 21.1683Z" fill="#EC1C24"/>
<path d="M20.3577 10.3385C20.3577 10.5802 20.3577 10.8488 20.3308 11.0905C20.2502 12.1646 19.9817 13.1582 19.552 14.0981C19.3909 14.4741 19.1761 14.8232 18.9612 15.1723C17.35 17.7235 14.5303 19.3885 11.3077 19.3885C9.93816 19.3885 8.6223 19.0662 7.44071 18.5291C4.37931 17.079 2.25781 13.937 2.25781 10.3385C2.25781 6.76691 4.29875 3.70551 7.27958 2.22852C7.03789 2.52391 6.82306 2.87302 6.63508 3.19527C6.60822 3.22213 6.60822 3.24898 6.58137 3.27584C6.47395 3.38325 6.33968 3.46382 6.23226 3.57123L5.82944 3.97405L5.74888 4.05461C5.72203 4.08147 5.69517 4.10832 5.66832 4.16203C5.61461 4.21574 5.5609 4.26945 5.53405 4.32316C5.45348 4.43057 5.34607 4.53799 5.2655 4.67226C4.88954 5.15564 4.56729 5.71958 4.3256 6.28353L4.24504 6.44465C4.21818 6.52522 4.19133 6.57892 4.16447 6.65949C4.16447 6.68634 4.13762 6.74005 4.13762 6.7669C4.11076 6.87432 4.05706 6.98174 4.0302 7.08916C4.00335 7.16972 3.97649 7.22343 3.97649 7.30399C3.97649 7.33085 3.94964 7.38456 3.94964 7.41141C3.92278 7.49197 3.92278 7.54568 3.89593 7.62625C3.84222 7.84108 3.78851 8.08277 3.76166 8.32446C3.76166 8.37817 3.7348 8.43188 3.7348 8.51244C3.7348 8.56615 3.7348 8.593 3.70795 8.64671C3.70795 8.72727 3.70795 8.78098 3.68109 8.86155V9.45234C3.68109 11.9229 4.80898 14.125 6.58137 15.5751C7.95094 16.703 9.69647 17.3744 11.5763 17.3744C13.295 17.3744 14.9062 16.8104 16.1952 15.8705C17.1351 15.1723 17.9408 14.2861 18.5047 13.2657C18.5853 13.1314 18.639 12.9971 18.7195 12.8628C19.1761 11.9229 19.4446 10.8488 19.4715 9.74774V9.4792C19.4715 9.21065 19.4715 8.96896 19.4446 8.72727C19.4715 8.72727 19.4715 8.75413 19.4715 8.75413C19.6057 8.86155 19.7132 8.96896 19.8206 9.07638C19.928 8.8884 20.0354 8.70042 20.1697 8.53929C20.2502 8.8884 20.304 9.23751 20.3308 9.58661C20.3577 9.80145 20.3577 10.07 20.3577 10.3385Z" fill="#EA2227"/>
<path d="M19.4701 9.42602V9.69456C19.4701 11.3058 18.7987 12.6485 18.7181 12.8097C18.6644 12.9439 18.5839 13.0782 18.5033 13.2125C17.9394 14.233 17.1337 15.146 16.1938 15.8174C14.9048 16.7573 13.2936 17.3212 11.5749 17.3212C9.66821 17.3212 7.92268 16.6498 6.57996 15.522C4.80757 14.0718 3.67969 11.8698 3.67969 9.39916V8.80837C3.67969 8.7278 3.67969 8.6741 3.70654 8.59353C3.70654 8.53982 3.70654 8.51297 3.7334 8.45926C3.7334 8.40555 3.76025 8.35184 3.76025 8.27128C3.78711 8.02959 3.84081 7.81475 3.89452 7.57307C3.92138 7.4925 3.92138 7.43879 3.94823 7.35823C3.94823 7.33138 3.97509 7.27767 3.97509 7.25081C4.00194 7.17025 4.00194 7.11654 4.02879 7.03598C4.05565 6.92856 4.10936 6.82114 4.13621 6.71373C4.13621 6.68687 4.16307 6.63316 4.16307 6.60631C4.18992 6.52574 4.21678 6.47204 4.24363 6.39147L4.32419 6.23035C4.56588 5.6664 4.88813 5.10246 5.2641 4.61908C5.34466 4.51167 5.45208 4.40425 5.53264 4.26998C5.58635 4.21627 5.6132 4.16256 5.66691 4.10885C5.69377 4.082 5.72062 4.05514 5.74747 4.00143L5.82804 3.92087L6.23085 3.51805C6.33827 3.41064 6.47254 3.30322 6.57996 3.22266C6.55311 3.24951 6.55311 3.27637 6.52625 3.30322C6.4994 3.33007 6.4994 3.35693 6.47254 3.41064C6.01602 4.35054 5.72062 5.42472 5.6132 6.60631C5.58635 6.92856 5.55949 7.25081 5.55949 7.57307C5.55949 11.7086 7.97639 15.0654 10.9841 15.0654H11.2795C11.7091 15.0654 12.1388 15.0117 12.5416 14.9043C14.5826 14.3404 16.0596 12.4874 16.0596 10.2854V10.1511C16.0327 8.83522 15.4688 7.68048 14.5826 6.82114C15.2002 6.848 15.791 6.92856 16.3818 7.06283C17.4828 7.35823 18.5033 7.86846 19.3626 8.56668C19.3895 8.56668 19.3895 8.59353 19.4164 8.59353C19.4432 8.91578 19.4701 9.15747 19.4701 9.42602Z" fill="#F69220"/>
<path d="M19.4959 9.42602V9.69456C19.4959 11.3864 18.744 12.8365 18.744 12.8365C18.6903 12.9708 18.6097 13.1051 18.5292 13.2393C17.9652 14.2598 17.1596 15.1729 16.1929 15.8711C14.8233 16.8378 13.2389 17.3749 11.547 17.3749C9.72094 17.3749 7.9217 16.7304 6.52527 15.5757C4.67232 14.0718 3.625 11.8161 3.625 9.42602C3.625 7.03598 4.69918 4.78021 6.55213 3.27636L6.63269 3.22266C6.60584 3.24951 6.60584 3.27637 6.57898 3.30322C6.55213 3.33007 6.55213 3.35693 6.52527 3.38378C4.72603 4.88763 3.67871 7.08969 3.67871 9.42602C3.67871 11.7892 4.72603 14.0181 6.55213 15.522C7.94855 16.6767 9.72094 17.2943 11.547 17.2943C13.212 17.2943 14.7964 16.7841 16.1391 15.8174C17.079 15.146 17.8847 14.233 18.4486 13.2125C18.5292 13.0782 18.5829 12.9439 18.6635 12.8097C18.6635 12.7828 19.4154 11.3595 19.4154 9.69456V9.42602C19.4154 9.18433 19.4154 8.91578 19.3885 8.67409V8.64724C19.4154 8.64724 19.4154 8.67409 19.4422 8.67409L19.4691 8.70095C19.4959 8.94264 19.4959 9.18433 19.4959 9.42602Z" fill="#F69220"/>
<path d="M17.3468 4.51209C17.3468 4.51209 10.9017 3.30364 7.86719 8.91621C7.86719 8.91621 8.40427 5.02232 13.0232 3.27679L12.1102 1.55811C12.1102 1.55811 13.9631 -0.106865 17.2125 0.322805L17.3468 4.51209Z" fill="#EA2227"/>
<path d="M9.34375 7.49162C9.34375 7.49162 11.9218 4.13482 17.8029 4.99416L17.7223 3.0338C17.7223 3.0338 20.1929 2.95323 22.1801 4.67191L19.7364 8.37782C19.7364 8.37782 18.0446 6.41745 14.5535 6.36374C13.1302 6.33688 11.3847 6.52486 9.34375 7.49162Z" fill="#F69220"/>
<path d="M6.79774 10.5538C6.79774 10.5538 3.84376 4.13557 10.6916 0L12.3297 3.00769C12.3297 3.00769 11.2287 3.38365 10.0471 4.40412C8.75811 5.50515 7.36168 7.38495 6.79774 10.5538Z" fill="#F69220"/>
<path d="M10.6943 8.80845C10.6943 8.80845 10.1303 8.94272 10.1572 8.64733C10.1572 8.53991 10.2109 8.51305 10.2646 8.53991C10.2646 8.4862 10.1572 8.35193 10.3989 8.27136C10.4794 8.16395 10.56 8.05653 10.5868 8.00282C10.6137 7.92226 10.6674 7.84169 10.8822 7.86855C11.0971 7.92226 11.3388 8.13709 11.3656 8.1908C11.4999 8.1908 11.6342 8.21766 11.5805 8.24451C11.5268 8.27136 11.4999 8.32507 11.5268 8.32507C11.5268 8.32507 11.6073 8.37878 11.3925 8.37878C11.3925 8.43249 11.4462 8.43249 11.473 8.45935C11.4999 8.4862 11.473 8.51305 11.473 8.51305C11.473 8.51305 11.4999 8.62047 11.3925 8.59362C11.2851 8.53991 11.2851 8.51305 11.2314 8.51305C11.2045 8.51305 11.1239 8.53991 11.1239 8.56676C11.1239 8.59362 11.2582 8.67418 11.0971 8.70103C11.0702 8.72789 11.1508 8.75474 11.0971 8.7816C11.0434 8.80845 10.8017 8.99643 10.6943 9.02329C10.5868 9.02329 10.56 8.99643 10.56 8.94272C10.56 8.88902 10.6137 8.86216 10.6943 8.86216C10.7211 8.83531 10.7211 8.80845 10.6943 8.80845Z" fill="#EC1C24"/>
<path d="M10.6408 9.39969C10.5871 9.39969 10.426 9.29228 10.5065 9.23857C10.5871 9.18486 10.963 8.94317 11.0436 8.91632C11.1242 8.88946 11.2316 8.99688 11.1242 9.07744C11.0436 9.158 10.6408 9.39969 10.6408 9.39969Z" fill="#EC1C24"/>
<path d="M11.2266 9.13001C11.2266 9.0763 11.2803 8.83461 11.2803 8.7809C11.2803 8.72719 11.4683 8.72719 11.4145 8.91517C11.3877 9.13001 11.2266 9.18372 11.2266 9.13001Z" fill="#EC1C24"/>
<path d="M11.4741 8.7016C11.4741 8.7016 12.4946 8.6479 12.5751 8.7016C12.6557 8.75531 13.0048 9.2924 12.9242 9.77578C12.8437 10.2592 12.6826 10.3934 12.038 10.4471C12.038 10.286 12.0112 9.8832 11.9306 9.77578C11.8769 9.66836 11.6352 9.42667 11.5278 9.42667C11.5278 9.53409 11.501 9.8832 11.501 9.8832C11.501 9.8832 11.1787 9.91005 11.125 9.82949V9.31926C11.125 9.31926 11.4204 9.05071 11.4473 8.997C11.501 9.02386 11.501 9.18498 11.8769 9.15813C11.9038 9.10442 11.4741 9.15813 11.4741 8.7016Z" fill="#EC1C24"/>
<path d="M11.0924 9.1582C11.0924 9.1582 10.7701 9.42675 10.6896 9.48046C10.6627 9.56102 10.609 9.85642 11.0387 9.85642C11.0655 9.66844 11.0924 9.1582 11.0924 9.1582Z" fill="#EC1C24"/>
<path d="M10.3148 9.55946C10.2074 9.55946 10.1268 9.5326 10.1536 9.45204C10.1536 9.37148 10.3148 9.29091 10.3953 9.31777C10.4759 9.34462 10.637 9.37148 10.637 9.72058C10.6907 9.80115 10.9056 9.93542 11.1473 9.96227C11.3889 9.98913 11.5501 9.93542 11.5501 10.016V10.4994C11.5501 10.4994 11.2547 10.4994 10.5027 9.96227C10.449 9.88171 10.3953 9.828 10.3953 9.69373C10.3953 9.64002 10.3416 9.55946 10.3148 9.55946Z" fill="#EC1C24"/>
<path d="M10.0715 9.61328C9.93724 9.61328 9.58813 9.90868 9.85667 10.043C9.93724 9.98924 9.99095 9.90868 9.99095 9.90868C9.99095 9.90868 9.93724 10.0698 10.0715 10.1235C10.2058 10.1772 10.1521 10.043 10.2326 10.043C10.2863 10.1235 10.2863 10.1504 10.3669 10.1504C10.4475 10.1504 10.4475 9.93553 10.3669 9.82812C10.2863 9.69384 10.2058 9.64014 10.0715 9.61328Z" fill="#EC1C24"/>
<path d="M11.6094 9.66797V10.6079C11.6094 10.6079 11.9316 10.5005 11.9585 10.4199C11.9585 10.2588 11.9048 9.66797 11.6094 9.66797Z" fill="#EC1C24"/>
<path d="M10.8516 10.2852C10.8516 10.2852 11.2275 10.5268 11.4424 10.6343C11.4155 10.688 11.2544 10.876 11.2007 10.876C11.147 10.8491 10.8784 10.4731 10.8516 10.2852Z" fill="#EC1C24"/>
<path d="M9.05469 10.6348H9.53807V10.8227H9.08154L9.05469 10.6348Z" fill="#EC1C24"/>
<path d="M14.559 10.5547H12.4375L12.7866 10.8232H14.559V10.5547Z" fill="#EC1C24"/>
<path d="M12.0389 10.528C12.0657 10.5012 12.3074 10.6891 12.2537 10.716C12.1731 10.7428 11.5286 11.0382 11.4749 11.0114C11.4212 10.9845 11.4212 10.8234 11.5018 10.7966C11.5555 10.7697 11.9315 10.6623 12.0389 10.528Z" fill="#EC1C24"/>
<path d="M11.3069 10.9839C11.2263 10.9302 10.7966 11.3598 10.9846 11.3867C11.1726 11.4135 11.6291 11.4941 11.7366 11.5478C11.844 11.4941 11.9514 11.4135 11.9245 11.3598C12.0051 11.3598 12.1125 11.4673 12.2199 11.4404C12.3273 11.3867 12.8376 11.0107 12.8644 10.957C12.757 10.8765 12.5422 10.7422 12.4348 10.7422C12.3542 10.7422 11.656 11.145 11.3069 10.9839Z" fill="#EC1C24"/>
<path d="M11.0991 11.4927C11.1528 11.4927 11.6899 11.7075 11.8241 11.6806C11.9584 11.6538 11.9853 11.5195 12.0658 11.5195C12.1464 11.5195 12.1732 11.6001 12.3075 11.5195C12.4418 11.439 12.6566 11.251 12.7103 11.1973C12.7103 11.2778 12.7103 11.5195 12.227 11.7344C11.7436 11.9492 10.5888 12.2714 10.562 12.4326C10.6157 12.4594 10.75 12.4057 10.8574 12.352C10.9111 12.4057 11.0185 12.54 10.9917 12.8085C10.9648 13.0502 10.7768 13.4799 10.7768 13.5873V14.2855C10.7768 14.3392 10.8842 14.6346 10.7231 14.6078C10.5888 14.5809 10.4814 14.5809 10.4277 14.5809C10.374 14.5809 10.2666 14.6883 10.1592 14.6615C10.0518 14.6346 9.89062 14.6078 9.89062 14.5541C9.89062 14.5004 9.99804 14.5004 10.1055 14.4735C10.2129 14.4466 10.2666 14.3392 10.4546 14.2587C10.4546 14.1244 10.4009 13.2113 10.4009 13.0234C10.4009 12.8354 10.3471 12.4326 10.4277 12.2714C10.4546 12.1103 10.8842 11.4927 11.0991 11.4927Z" fill="#EC1C24"/>
<path d="M11.7969 12.0581C11.7969 12.1118 12.1191 12.9443 12.2803 12.9711C12.4145 12.998 13.7841 12.7026 14.0526 12.7832C14.1332 12.8906 14.2943 13.0786 14.2943 13.2128C14.2943 13.2128 14.3212 13.4814 14.2943 13.5082C14.348 13.5082 14.4555 13.4814 14.4823 13.4008C14.5092 13.3202 14.4823 12.9711 14.5092 12.8906C14.5092 12.8369 14.6703 12.4878 14.4555 12.5146C14.2406 12.5146 13.5961 12.5146 13.3813 12.4609C13.1664 12.4072 12.7099 12.3266 12.6025 12.3803C12.4951 12.4341 12.3608 12.622 12.3608 12.6757C12.3071 12.6757 12.3071 12.6489 12.334 12.4878C12.3877 12.3535 12.5488 11.9238 12.5219 11.709C12.3608 11.709 11.7969 12.0581 11.7969 12.0581Z" fill="#EC1C24"/>
<path d="M11.0121 10.7412C11.039 10.7681 11.039 10.8486 11.0927 10.8755L9.99168 10.7949C9.99168 10.7949 9.85741 10.7144 9.91112 10.6875L11.0121 10.7412Z" fill="#EC1C24"/>
<path d="M9.80257 10.6348H10.9036C10.9036 10.6348 10.823 10.5005 10.7962 10.4199C10.6082 10.4199 9.77572 10.4468 9.77572 10.4468C9.77572 10.4468 9.6683 10.4468 9.6683 10.6616C9.64145 10.7153 9.74886 10.7959 9.80257 10.6348Z" fill="#EC1C24"/>
<path d="M8.75922 10.8215H8.97405C8.97405 10.8215 9.05462 10.7946 8.97405 10.714C8.89349 10.6335 8.75922 10.5798 8.86664 10.4187C8.75922 10.3918 8.59809 10.3649 8.62495 10.714H8.51753C8.51753 10.714 8.49068 10.5261 8.22213 10.5261C7.98044 10.5261 7.33594 10.7946 7.33594 10.7946C7.33594 10.7946 8.03415 10.9826 8.22213 10.9826C8.41011 10.9826 8.51753 10.8215 8.51753 10.8215H8.59809C8.59809 10.8215 8.62495 10.9557 8.67866 11.0094V11.2243C8.67866 11.2243 8.57124 11.2511 8.59809 11.3854C8.62495 11.4928 8.70551 11.4928 8.70551 11.4928C8.73237 11.4928 8.75922 11.466 8.83978 11.466C8.89349 11.4123 8.86664 11.278 8.75922 11.2243V11.0632C8.75922 11.0632 8.83978 11.0094 8.83978 10.9557C8.83978 10.902 8.75922 10.902 8.75922 10.8215Z" fill="#EC1C24"/>
<path d="M10.072 11.8964C10.1526 11.8427 10.1794 11.7353 10.1794 11.7353V11.0908C10.1794 10.9297 9.9109 10.8223 9.88404 10.8223H9.85719C9.83033 10.8491 9.74977 10.9028 9.69606 10.9028C9.6155 10.9028 9.58864 10.9028 9.50808 10.8223C9.29325 10.8223 9.18583 11.0908 9.15897 11.0908C9.15897 11.1445 9.13212 11.601 9.15897 11.6816C9.18583 11.7622 9.23954 11.8159 9.26639 11.8427C9.21268 12.0039 8.99785 12.8632 9.29325 12.9706V13.1049H10.0452V12.9438C10.3137 12.8363 10.1257 12.1113 10.072 11.8964ZM9.23954 11.0908C9.26639 11.064 9.34696 10.8491 9.50808 10.8491C9.58864 10.9297 9.64235 10.9297 9.72292 10.9297C9.80348 10.9297 9.85719 10.876 9.9109 10.8491C9.99146 10.876 10.1526 10.9565 10.1526 11.064V11.7085C10.1526 11.7353 10.1257 11.789 10.072 11.8159H9.93775V11.5473H9.42752V11.8159H9.3201C9.29325 11.789 9.23954 11.7353 9.23954 11.6816C9.21268 11.6279 9.21268 11.3056 9.23954 11.0908ZM9.74977 12.8632H9.6155C9.58865 12.8632 9.56179 12.8363 9.56179 12.8095C9.56179 12.7826 9.58865 12.7558 9.6155 12.7558H9.74977C9.77663 12.7558 9.80348 12.7826 9.80348 12.8095C9.80348 12.8363 9.77663 12.8632 9.74977 12.8632ZM10.0183 12.9169L9.66921 12.5141L9.34696 12.9169C9.13212 12.8363 9.26639 12.165 9.34696 11.8696H10.0452C10.0989 12.165 10.2332 12.8095 10.0183 12.9169Z" fill="#EC1C24"/>
<path d="M9.91488 12.1645C9.99545 12.0571 9.88803 11.9766 9.88803 11.9766H9.45836C9.32409 11.9766 9.3778 12.1645 9.3778 12.1645L9.64634 12.4062C9.64634 12.4062 9.83432 12.2988 9.91488 12.1645Z" fill="#EC1C24"/>
<path d="M9.75 12.4326L10.0185 12.7549C10.0185 12.7549 9.99169 12.3789 9.99169 12.2715C9.91113 12.2715 9.75 12.4326 9.75 12.4326Z" fill="#EC1C24"/>
<path d="M9.34717 12.2715C9.34717 12.4058 9.32031 12.7549 9.32031 12.7549L9.58886 12.4326C9.58886 12.4326 9.42773 12.2715 9.34717 12.2715Z" fill="#EC1C24"/>
<path d="M9.86277 11.4668H9.91648V11.4131C9.91648 11.3862 9.88963 11.3594 9.86277 11.3594H9.45996C9.4331 11.3594 9.40625 11.3862 9.40625 11.4131V11.4668H9.45996H9.86277Z" fill="#EC1C24"/>
<path d="M9.27246 13.1582H9.21875V13.2119C9.21875 13.2388 9.2456 13.2656 9.27246 13.2656H10.0512C10.0781 13.2656 10.1049 13.2388 10.1049 13.2119V13.1582H10.0512H9.27246Z" fill="#EC1C24"/>
</svg>
