<svg width="33" height="22" viewBox="0 0 33 22" fill="none" xmlns="http://www.w3.org/2000/svg">
<g clip-path="url(#clip0_778_12316)">
<path fill-rule="evenodd" clip-rule="evenodd" d="M0 22.0001H33V0H0V22.0001Z" fill="#8C3493"/>
<path fill-rule="evenodd" clip-rule="evenodd" d="M22.9986 3.57447L19.0799 7.47689L19.3548 9.66804L20.077 8.16154L22.3111 11.003L25.4393 1.41797L15.0234 5.73131L17.8427 7.20317L22.9986 3.57447Z" fill="white"/>
<path d="M18.0779 14.5278C18.0779 14.5278 15.9465 14.5278 15.7746 14.5278C14.3481 14.6134 13.884 12.2687 15.6372 11.9604C16.1528 11.9604 18.0779 11.9604 18.0779 11.9604V14.5278ZM19.5893 10.4199C19.5893 10.4199 16.2718 10.4199 15.4643 10.4199C12.3187 10.8994 11.9923 15.4522 15.4298 16.0686H19.5893V11.9604C20.9759 12.0062 21.2623 13.7291 20.2423 14.3566C20.4487 14.5964 21.2739 15.4865 21.2739 15.4865C23.4394 13.6265 22.2019 10.5683 19.5893 10.4199Z" fill="white"/>
<path fill-rule="evenodd" clip-rule="evenodd" d="M28.2202 12.4749C27.5327 12.4749 26.7077 12.4749 26.7077 12.4749L26.0543 13.9814C26.0543 13.9814 27.8075 13.9814 27.9794 13.9814C28.3665 13.964 28.3835 14.5288 27.9794 14.5631C27.4812 14.5631 24.6452 14.5631 24.6452 14.5631V11.9614H29.7671V10.4209C29.7671 10.4209 29.054 10.4209 29.011 10.4209C28.7873 7.23745 24.9631 7.14338 23.9577 8.88081C24.1555 9.04314 25.092 9.87348 25.092 9.87348C25.668 8.97488 27.2663 9.01767 27.4982 10.4209H23.1328V16.0696H28.0483C29.1655 16.0523 29.6811 15.2308 29.8015 14.5288C29.87 13.3993 29.1825 12.646 28.2202 12.4749Z" fill="white"/>
<path fill-rule="evenodd" clip-rule="evenodd" d="M13.5049 10.4199H11.5113C10.8753 11.1902 9.77518 14.3054 11.9581 16.6503C11.9581 16.6503 12.9034 15.8458 13.0923 15.692C12.4222 15.0413 11.305 12.3883 13.5049 10.4199Z" fill="white"/>
<path fill-rule="evenodd" clip-rule="evenodd" d="M8.42904 16.7056C8.42904 17.393 7.86942 17.9499 7.17919 17.9499C6.48896 17.9499 5.92969 17.393 5.92969 16.7056C5.92969 16.0182 6.48896 15.4609 7.17919 15.4609C7.86942 15.4609 8.42904 16.0182 8.42904 16.7056Z" fill="white"/>
<path fill-rule="evenodd" clip-rule="evenodd" d="M8.38924 14.5278C8.38924 14.5278 6.25785 14.5278 6.08598 14.5278C4.65948 14.6134 4.19535 12.2687 5.94854 11.9604C6.46417 11.9604 8.38924 11.9604 8.38924 11.9604V14.5278ZM5.77667 10.4199C2.63142 10.8994 2.30472 15.4522 5.74222 16.0686H5.76507C6.00925 15.5286 6.55352 15.1527 7.18645 15.1527C7.81939 15.1527 8.36366 15.5286 8.60749 16.0686H9.90167C9.90167 15.8801 9.90167 10.4199 9.90167 10.4199C9.90167 10.4199 6.58455 10.4199 5.77667 10.4199Z" fill="white"/>
<path fill-rule="evenodd" clip-rule="evenodd" d="M7.18806 8.39083C7.18806 8.46215 7.12974 8.52023 7.05813 8.52023H6.4003V8.24684H7.05813C7.12974 8.24684 7.18806 8.30491 7.18806 8.37623V8.39083ZM7.25353 9.08635C7.75995 9.00077 8.00924 7.96531 7.18431 7.73438C7.08984 7.73438 5.84375 7.73438 5.84375 7.73438V9.70274H6.39348V9.08635L7.01243 9.70274H7.87215L7.25353 9.08635Z" fill="white"/>
<path fill-rule="evenodd" clip-rule="evenodd" d="M8.82971 9.13898C8.58656 9.13898 8.38945 8.94269 8.38945 8.70055C8.38945 8.45841 8.58656 8.26212 8.82971 8.26212C9.07285 8.26212 9.26997 8.45841 9.26997 8.70055C9.26997 8.94269 9.07285 9.13898 8.82971 9.13898ZM8.82971 7.70312C8.27657 7.70312 7.82812 8.14971 7.82812 8.70055C7.82812 9.25139 8.27657 9.69798 8.82971 9.69798C9.38284 9.69798 9.83129 9.25139 9.83129 8.70055C9.83129 8.14971 9.38284 7.70312 8.82971 7.70312Z" fill="white"/>
<path fill-rule="evenodd" clip-rule="evenodd" d="M14.5129 8.26976H15.4132V7.69141H14.6514C14.0525 7.69141 13.5625 8.14172 13.5625 8.69189C13.5625 9.24205 14.0525 9.69237 14.6514 9.69237H15.4132V9.11402H14.5129C14.381 9.11402 14.2633 9.05119 14.1876 8.9544H15.4132V8.42937H14.1876C14.2633 8.33258 14.381 8.26976 14.5129 8.26976Z" fill="white"/>
<path fill-rule="evenodd" clip-rule="evenodd" d="M10.9302 9.11402C10.7035 9.11402 10.518 8.92927 10.518 8.70343V8.68034C10.518 8.4545 10.7035 8.26976 10.9302 8.26976H11.7859V7.69141H11.0186C10.4197 7.69141 9.92969 8.14172 9.92969 8.69189C9.92969 9.24205 10.4197 9.69237 11.0186 9.69237H11.7859V9.11402H10.9302Z" fill="white"/>
<path fill-rule="evenodd" clip-rule="evenodd" d="M17.5026 7.72852H15.5625V8.24608H16.2728V9.66088H16.7922V8.24608H17.5026V7.72852Z" fill="white"/>
<path d="M12.8822 8.68723L13.8371 7.72852H13.0643L12.5272 8.26781V7.72852H12.0078V9.66088H12.5272V9.10698L13.079 9.66088H13.8521L12.8822 8.68723Z" fill="white"/>
<path d="M20.6931 17.0263C20.6071 17.0433 20.5318 17.0969 20.4666 17.1873C20.4039 17.2732 20.3729 17.3601 20.3729 17.4484C20.3729 17.5014 20.3838 17.553 20.4059 17.6026C20.4336 17.6661 20.4714 17.6974 20.5192 17.6974C20.5434 17.6974 20.5747 17.6845 20.6133 17.6583L20.6672 17.802C20.6184 17.8312 20.571 17.8458 20.525 17.8458C20.4625 17.8458 20.4025 17.8227 20.3446 17.7765C20.3111 17.7497 20.2791 17.6984 20.2491 17.6226C20.2341 17.5856 20.2266 17.5296 20.2266 17.4552V17.4029C20.2266 17.2858 20.289 17.154 20.4138 17.0073C20.4404 16.9771 20.4851 16.9339 20.5475 16.8789H20.7436V17.0212C20.7251 17.0236 20.7081 17.0253 20.6931 17.0263Z" fill="white"/>
<path d="M21.4012 17.0215H21.0168C21.1256 17.0915 21.1819 17.1832 21.1867 17.2963C21.2559 17.3235 21.3275 17.3771 21.4012 17.4576V17.0215ZM21.5645 17.0215V17.8346H21.4012V17.7296C21.4012 17.6933 21.3735 17.6471 21.3183 17.5907C21.2767 17.5479 21.233 17.5106 21.187 17.479C21.1362 17.444 21.0809 17.4267 21.0209 17.4267C20.9599 17.4267 20.9156 17.4525 20.8879 17.5048C20.8845 17.5106 20.8828 17.5177 20.8828 17.5269C20.8828 17.5486 20.8934 17.568 20.9149 17.5856C20.936 17.6033 20.9575 17.6118 20.9797 17.6118C20.9967 17.6118 21.0383 17.5992 21.1041 17.5741L21.1522 17.7218C21.0792 17.7588 21.0189 17.7775 20.9701 17.7775C20.9156 17.7775 20.8661 17.7622 20.8207 17.732C20.7757 17.7014 20.7427 17.6617 20.7219 17.6121C20.7126 17.5907 20.7079 17.5646 20.7079 17.533C20.7079 17.441 20.7464 17.3707 20.8228 17.3221C20.876 17.2875 20.9329 17.2698 20.9933 17.2698C20.9988 17.2698 21.0042 17.2698 21.009 17.2698C21.0076 17.2416 20.9926 17.2097 20.9636 17.174C20.9346 17.139 20.9063 17.1214 20.8784 17.1214H20.6976V17.0215H20.625V16.8789H21.676V17.0215H21.5645Z" fill="white"/>
<path d="M21.8853 17.0215V17.8346H21.7219V17.0215H21.6016V16.8789H21.9941V17.0215H21.8853Z" fill="white"/>
<path d="M22.6748 17.1975C22.6445 17.2076 22.6121 17.2192 22.5769 17.2328C22.5258 17.2552 22.4327 17.2959 22.2977 17.3544L22.2666 17.3679C22.3955 17.4128 22.5186 17.4793 22.6363 17.5673C22.6513 17.5785 22.6642 17.588 22.6748 17.5958V17.1975ZM22.6653 17.0215H21.9297V16.8789H22.948V17.0215H22.8351V17.8346H22.6908C22.6769 17.7928 22.6063 17.7279 22.4787 17.6403C22.4269 17.6046 22.3549 17.5697 22.2635 17.536C22.166 17.4997 22.0886 17.482 22.0306 17.482L21.9873 17.3201C22.0252 17.2895 22.1305 17.2372 22.3028 17.1632C22.3757 17.1316 22.4965 17.0844 22.6653 17.0215Z" fill="white"/>
<path d="M23.1584 17.0215V17.8346H22.9954V17.0215H22.875V16.8789H23.2672V17.0215H23.1584Z" fill="white"/>
<path d="M23.7784 17.972C23.7122 17.9122 23.6416 17.8568 23.5666 17.8049C23.5308 17.7804 23.4711 17.7529 23.3879 17.7227C23.3221 17.6989 23.2832 17.687 23.2716 17.687L23.2737 17.4968C23.2873 17.4968 23.3085 17.4975 23.3368 17.4992C23.3651 17.5009 23.3862 17.5019 23.4002 17.5019C23.4742 17.5019 23.5342 17.4924 23.5806 17.4734C23.6682 17.4367 23.7122 17.3936 23.7122 17.3437C23.7122 17.307 23.6955 17.2764 23.6621 17.252C23.6297 17.233 23.5966 17.2146 23.5632 17.197C23.554 17.1926 23.5445 17.1902 23.5356 17.1902C23.5158 17.1902 23.4943 17.1953 23.4711 17.2051C23.4422 17.2187 23.4292 17.2336 23.4312 17.2503C23.437 17.2924 23.4817 17.3101 23.5649 17.3036L23.4766 17.4384C23.4408 17.4408 23.4043 17.4296 23.3671 17.4048C23.2999 17.3596 23.2665 17.3046 23.2665 17.2394C23.2665 17.1742 23.3006 17.1236 23.3688 17.0873C23.4244 17.0571 23.4882 17.0418 23.5598 17.0418C23.5908 17.0418 23.6181 17.0472 23.6406 17.0571C23.6631 17.0672 23.686 17.0784 23.7092 17.0907C23.82 17.147 23.8756 17.2323 23.8756 17.3467C23.8756 17.4289 23.8415 17.4951 23.7733 17.5457C23.7211 17.5838 23.6464 17.6113 23.5492 17.6283C23.5782 17.6415 23.6198 17.6646 23.674 17.6972C23.7668 17.7668 23.8415 17.8293 23.8981 17.8843L23.7784 17.972ZM23.2109 17.0221V16.8794H23.6931C23.6945 16.8737 23.6952 16.8696 23.6952 16.8676C23.6952 16.7928 23.6597 16.7439 23.5891 16.7202C23.5799 16.7178 23.5694 16.7168 23.5578 16.7168C23.5404 16.7168 23.5192 16.7202 23.4936 16.727C23.4592 16.7361 23.4381 16.7412 23.4312 16.7426C23.4036 16.747 23.3794 16.7555 23.3586 16.768C23.332 16.7864 23.3013 16.803 23.2665 16.818L23.2147 16.6974C23.2771 16.6543 23.3589 16.6176 23.4609 16.587C23.5035 16.5745 23.5441 16.5684 23.5823 16.5684C23.6229 16.5684 23.6682 16.583 23.7194 16.6125C23.806 16.6641 23.851 16.7531 23.8548 16.8794H23.9482V17.0221H23.2109Z" fill="white"/>
<path d="M24.9206 17.0215V17.8346H24.7576V17.5119C24.7576 17.4837 24.7453 17.4552 24.7211 17.4253C24.6969 17.3958 24.6709 17.3808 24.6433 17.3808C24.6177 17.3808 24.5935 17.3965 24.5703 17.4277C24.5472 17.4593 24.5359 17.4946 24.5359 17.535H24.3593C24.3593 17.4899 24.3477 17.4511 24.3245 17.4185C24.3009 17.3859 24.2743 17.3693 24.244 17.3693C24.2184 17.3693 24.1939 17.3785 24.1707 17.3965C24.1475 17.4145 24.1349 17.4355 24.1325 17.4593L24.1274 17.5014V17.518C24.1274 17.6016 24.1785 17.6434 24.2812 17.6434C24.2975 17.6434 24.3251 17.64 24.3644 17.6332L24.3071 17.7972C24.2737 17.8013 24.2532 17.803 24.2464 17.803C24.17 17.803 24.0994 17.7748 24.0346 17.7184C24.009 17.697 23.9886 17.6644 23.9722 17.6206C23.9572 17.5812 23.9497 17.5428 23.9497 17.5055C23.9497 17.4175 23.9766 17.3462 24.0312 17.2919C24.0858 17.2372 24.157 17.2097 24.245 17.2097C24.3272 17.2097 24.3961 17.2487 24.4517 17.3265C24.5117 17.2487 24.5768 17.2097 24.6461 17.2097C24.6846 17.2097 24.7214 17.227 24.7576 17.2616V17.0215H23.875V16.8789H25.013V17.0215H24.9206Z" fill="white"/>
<path d="M26.1589 17.1975C26.1288 17.2076 26.0961 17.2192 26.0613 17.2328C26.0102 17.2552 25.9171 17.2959 25.782 17.3544L25.7507 17.3679C25.8799 17.4128 26.003 17.4793 26.1207 17.5673C26.1357 17.5785 26.1486 17.588 26.1589 17.5958V17.1975ZM26.1496 17.0215H25.4141V16.8789H26.4324V17.0215H26.3195V17.8346H26.1752C26.1612 17.7928 26.0906 17.7279 25.9631 17.6403C25.9109 17.6046 25.8393 17.5697 25.7476 17.536C25.6504 17.4997 25.573 17.482 25.515 17.482L25.4714 17.3201C25.5095 17.2895 25.6149 17.2372 25.7871 17.1632C25.8601 17.1316 25.9808 17.0844 26.1496 17.0215Z" fill="white"/>
<path d="M26.7031 17.0215C26.6513 17.0925 26.6257 17.1513 26.6257 17.1975C26.6257 17.2189 26.652 17.3048 26.7048 17.4549C26.7321 17.5306 26.7461 17.5931 26.7461 17.643C26.7461 17.7378 26.6929 17.8037 26.5865 17.841C26.5541 17.8536 26.4965 17.8634 26.4133 17.8716L26.4351 17.731C26.5316 17.7106 26.58 17.677 26.58 17.6294C26.58 17.5853 26.5599 17.5177 26.5197 17.426C26.4794 17.3347 26.4596 17.2674 26.4596 17.2246C26.4596 17.1693 26.4828 17.1017 26.5292 17.0215H26.3594V16.8789H26.8146V17.0215H26.7031Z" fill="white"/>
<path d="M27.049 17.0215V17.8346H26.8857V17.0215H26.7656V16.8789H27.1578V17.0215H27.049Z" fill="white"/>
<path d="M27.4672 17.0758C27.4508 17.0646 27.4344 17.0598 27.4181 17.0622C27.3563 17.0724 27.3256 17.1026 27.3256 17.1532C27.3256 17.1794 27.3359 17.2032 27.3563 17.2252C27.3768 17.247 27.3996 17.2582 27.4252 17.2582L27.4477 17.2548C27.4945 17.2402 27.5176 17.212 27.5176 17.1702C27.5176 17.1308 27.5009 17.0992 27.4672 17.0758ZM27.6114 17.9306C27.4044 17.757 27.2643 17.6528 27.1899 17.6178L27.192 17.3933C27.4764 17.5961 27.6626 17.7577 27.7502 17.8783V18.0454L27.6114 17.9306ZM27.4331 17.4066C27.3567 17.4066 27.2953 17.3825 27.2489 17.3346C27.2029 17.2867 27.1797 17.2249 27.1797 17.1495C27.1797 17.0795 27.2032 17.0215 27.251 16.9746C27.298 16.9277 27.357 16.9043 27.428 16.9043C27.5238 16.9043 27.593 16.9522 27.636 17.048C27.6544 17.0887 27.6639 17.1288 27.6639 17.1682C27.6639 17.2412 27.6438 17.2996 27.6039 17.3424C27.564 17.3852 27.5071 17.4066 27.4331 17.4066Z" fill="white"/>
<path d="M28.7744 16.7841C28.5841 16.6652 28.4286 16.6054 28.3075 16.6054C28.1646 16.6054 28.0596 16.6506 27.9927 16.7406C27.9696 16.7722 27.9569 16.8187 27.9546 16.8795H28.0691V17.0221H27.9546V17.8352H27.7885V17.0221H27.6797V16.8795H27.7885C27.7919 16.764 27.8301 16.6703 27.9031 16.5983C27.9757 16.5267 28.0746 16.4825 28.1997 16.4655C28.2124 16.4645 28.2369 16.4618 28.2727 16.457H28.3072C28.4067 16.457 28.5056 16.4784 28.6042 16.5212C28.6574 16.546 28.7447 16.5953 28.8661 16.6696L28.7744 16.7841Z" fill="white"/>
<path d="M28.4766 17.2093C28.45 17.2294 28.4094 17.2565 28.3548 17.2902C28.3412 17.2959 28.3251 17.3075 28.3074 17.3248C28.2893 17.3425 28.2723 17.3584 28.2559 17.373C28.2733 17.3887 28.3009 17.4107 28.3395 17.4389C28.3753 17.4793 28.421 17.5296 28.4766 17.589V17.2093ZM28.6399 17.0215V17.0266C28.7081 17.03 28.7794 17.0514 28.8534 17.0908C28.9574 17.1475 29.0096 17.2243 29.0096 17.3214C29.0096 17.3781 28.9922 17.427 28.9574 17.4681C28.9223 17.5092 28.8769 17.5364 28.8207 17.5493C28.7644 17.5625 28.7166 17.5642 28.6771 17.5554V17.4016C28.6958 17.4039 28.7129 17.4053 28.7293 17.4053C28.8111 17.4053 28.852 17.3758 28.852 17.3173C28.852 17.2474 28.7811 17.2036 28.6399 17.1856V17.8346H28.496C28.4725 17.7894 28.4496 17.7548 28.4264 17.73C28.4182 17.7208 28.3974 17.694 28.3637 17.6488C28.3535 17.6342 28.3344 17.6159 28.3067 17.5931C28.2788 17.5707 28.2597 17.5523 28.2494 17.5377C28.2447 17.531 28.2317 17.5235 28.2109 17.5157C28.1403 17.4909 28.083 17.4783 28.039 17.4783L27.9957 17.3167C28.0319 17.2908 28.1127 17.2423 28.2389 17.1716C28.2481 17.1649 28.2866 17.1424 28.3545 17.1041C28.3787 17.0895 28.4196 17.0657 28.4766 17.0331V17.0215H27.9609V16.8789H29.0819V17.0215H28.6399Z" fill="white"/>
<path d="M29.3578 17.0758C29.3418 17.0646 29.3254 17.0598 29.309 17.0622C29.2473 17.0724 29.2166 17.1026 29.2166 17.1532C29.2166 17.1794 29.2268 17.2032 29.2473 17.2252C29.2674 17.247 29.2906 17.2582 29.3162 17.2582L29.3387 17.2548C29.3854 17.2402 29.4086 17.212 29.4086 17.1702C29.4086 17.1308 29.3916 17.0992 29.3578 17.0758ZM29.5024 17.9306C29.2954 17.757 29.1549 17.6528 29.0809 17.6178L29.0826 17.3933C29.3673 17.5961 29.5532 17.7577 29.6412 17.8783V18.0454L29.5024 17.9306ZM29.324 17.4066C29.2476 17.4066 29.1863 17.3825 29.1399 17.3346C29.0935 17.2867 29.0703 17.2249 29.0703 17.1495C29.0703 17.0795 29.0942 17.0215 29.1416 16.9746C29.189 16.9277 29.248 16.9043 29.3186 16.9043C29.4147 16.9043 29.484 16.9522 29.5269 17.048C29.5454 17.0887 29.5546 17.1288 29.5546 17.1682C29.5546 17.2412 29.5348 17.2996 29.4949 17.3424C29.455 17.3852 29.3977 17.4066 29.324 17.4066Z" fill="white"/>
<path d="M11.2734 17.9051L11.5776 18.0073L11.6994 17.9051L11.3952 17.7988L11.2734 17.9051Z" fill="white"/>
<path d="M11.1093 17.447C11.14 17.4558 11.1806 17.4066 11.2109 17.3662C11.2109 17.411 11.2109 17.483 11.2109 17.5546C11.2109 17.6266 11.1533 17.6895 11.1093 17.6895C11.0656 17.6895 10.6837 17.6895 10.6837 17.6895V17.447C10.6837 17.447 11.0721 17.447 11.1093 17.447ZM11.3732 17.0642V16.8809H8.98438V17.0642H9.38576V17.4738C9.38576 17.4738 9.69336 17.4738 9.73053 17.4738C9.73053 17.4738 9.8284 17.4426 9.85228 17.393C9.85228 17.4514 9.85228 17.5322 9.85228 17.5546C9.85228 17.6266 9.79805 17.6895 9.73053 17.6895C9.66301 17.6895 9.25412 17.6895 9.22377 17.6895C9.19308 17.6895 9.16273 17.6759 9.16273 17.5546C9.16273 17.4334 9.16273 17.1729 9.16273 17.1729H8.98438C8.98438 17.1729 8.98438 17.6222 8.98438 17.6626C8.98438 17.703 9.00995 17.8457 9.13818 17.8457C9.26674 17.8457 9.79839 17.8457 9.82533 17.8457C9.93242 17.8423 10.0085 17.7336 10.0143 17.6423C10.0143 17.4446 10.0143 17.1729 10.0143 17.1729H9.85228C9.83522 17.2449 9.84546 17.2942 9.77111 17.3122C9.69677 17.3122 9.5682 17.3122 9.5682 17.3122V17.0642H10.1565V17.8457H10.359V17.0642H10.5012V17.8457C10.5012 17.8457 11.1229 17.8457 11.1703 17.8457C11.2177 17.8457 11.3732 17.8063 11.3732 17.6358C11.3732 17.465 11.3732 17.1729 11.3732 17.1729H11.2109C11.2109 17.2177 11.2041 17.2853 11.1297 17.2853C11.0554 17.2853 10.6837 17.2853 10.6837 17.2853V17.0642H11.3732Z" fill="white"/>
<path d="M11.6016 17.5005H12.007V17.2852H11.6016V17.5005Z" fill="white"/>
<path d="M12.8946 17.7163C12.8946 17.7163 12.5059 17.7163 12.4891 17.7163C12.4284 17.7075 12.3879 17.6358 12.3879 17.5546C12.3879 17.4738 12.3879 17.339 12.3879 17.339H12.8946V17.7163ZM12.2266 16.8809V17.0642H12.8946V17.1729H12.2266C12.2266 17.1729 12.2266 17.5771 12.2266 17.6086C12.2409 17.7506 12.3139 17.8457 12.4527 17.8457C12.6181 17.8457 13.057 17.8457 13.057 17.8457V17.0642H13.1988V17.8457H13.3813V16.8809H12.2266Z" fill="white"/>
<path d="M14.2578 17.0642H15.0851V17.1729C15.048 17.1729 14.8655 17.1729 14.842 17.1729C14.8318 17.2493 14.7066 17.2908 14.6797 17.1729C14.5446 17.1729 14.2578 17.1729 14.2578 17.1729C14.2578 17.1729 14.2578 17.5906 14.2578 17.6358C14.2578 17.6806 14.2646 17.8273 14.3884 17.8457C14.5033 17.8457 14.7202 17.8457 14.7202 17.8457V17.6895C14.7202 17.6895 14.5378 17.6895 14.4972 17.6895C14.4532 17.6759 14.416 17.649 14.416 17.5818C14.416 17.5006 14.416 17.339 14.416 17.339H14.6391V17.4738H14.842V17.3662C14.8283 17.3166 15.0548 17.321 15.065 17.3662C15.065 17.4334 15.065 17.8457 15.065 17.8457H15.2475V17.0642H15.3692V17.8457H15.5516V16.8809H14.2578V17.0642Z" fill="white"/>
<path d="M13.8388 17.2039C13.7611 17.2039 13.698 17.1754 13.698 17.1404C13.698 17.1058 13.7611 17.0772 13.8388 17.0772C13.9166 17.0772 13.9797 17.1058 13.9797 17.1404C13.9797 17.1754 13.9166 17.2039 13.8388 17.2039ZM13.9701 16.9336C13.8958 16.9336 13.5391 16.9336 13.5391 16.9336C13.5391 16.9336 13.5391 17.1465 13.5391 17.1869C13.5561 17.2678 13.5994 17.3676 13.7471 17.3754C13.8958 17.3754 14.0919 17.3754 14.0919 17.3754V17.063C14.0816 17.01 14.0445 16.9424 13.9701 16.9336Z" fill="white"/>
<path d="M13.5703 17.4707V17.6296L14.0914 17.8449V17.6765L13.5703 17.4707Z" fill="white"/>
<path d="M18.2057 17.2039C18.1279 17.2039 18.0648 17.1754 18.0648 17.1404C18.0648 17.1058 18.1279 17.0772 18.2057 17.0772C18.2834 17.0772 18.3465 17.1058 18.3465 17.1404C18.3465 17.1754 18.2834 17.2039 18.2057 17.2039ZM18.337 16.9336C18.2626 16.9336 17.9062 16.9336 17.9062 16.9336C17.9062 16.9336 17.9062 17.1465 17.9062 17.1869C17.923 17.2678 17.9663 17.3676 18.1139 17.3754C18.2626 17.3754 18.4587 17.3754 18.4587 17.3754V17.063C18.4485 17.01 18.4113 16.9424 18.337 16.9336Z" fill="white"/>
<path d="M17.9375 17.4707V17.6296L18.4586 17.8449V17.6765L17.9375 17.4707Z" fill="white"/>
<path d="M19.2852 17.7163C19.2852 17.7163 18.8965 17.7163 18.8798 17.7163C18.8187 17.7075 18.7785 17.6358 18.7785 17.5546C18.7785 17.4738 18.7785 17.339 18.7785 17.339H19.2822L19.2849 17.3662H19.2852V17.7163ZM19.4476 17.1729V17.0642H19.7835V16.8809H18.6172V17.0642H19.2852V17.1729H18.6172C18.6172 17.1729 18.6172 17.5771 18.6172 17.6086C18.6315 17.7506 18.7045 17.8457 18.8429 17.8457C19.0087 17.8457 19.4476 17.8457 19.4476 17.8457V17.3662H19.6096C19.6365 17.3662 19.6433 17.3526 19.6501 17.393C19.6501 17.4426 19.6501 17.4738 19.6501 17.4738C19.6399 17.5146 19.6365 17.5414 19.6096 17.5546C19.5826 17.5546 19.5499 17.5546 19.5499 17.5546V17.7163H19.6703C19.7108 17.7119 19.7852 17.667 19.792 17.6086C19.792 17.519 19.792 17.1729 19.792 17.1729H19.4476Z" fill="white"/>
<path d="M16.77 17.7163C16.77 17.7163 16.3812 17.7163 16.3641 17.7163C16.3034 17.7075 16.2629 17.6358 16.2629 17.5546C16.2629 17.4738 16.2629 17.339 16.2629 17.339H16.77V17.7163ZM16.1016 16.8809V17.0642H16.77V17.1729H16.1016C16.1016 17.1729 16.1016 17.5771 16.1016 17.6086C16.1162 17.7506 16.1892 17.8457 16.3277 17.8457C16.4934 17.8457 16.932 17.8457 16.932 17.8457V17.0642H17.1434L17.0663 17.2174V17.3254C17.0663 17.3254 17.1812 17.3254 17.2085 17.3254C17.2839 17.3339 17.3098 17.3838 17.3098 17.5139C17.3098 17.6039 17.289 17.6687 17.2191 17.6759C17.1751 17.6759 17.0864 17.6759 17.0864 17.6759V17.8375C17.0864 17.8375 17.1881 17.8375 17.2286 17.8375C17.2692 17.8375 17.4551 17.8555 17.4721 17.6759C17.4922 17.3118 17.509 17.2174 17.2488 17.1906L17.287 17.0642H17.5727V17.8457H17.7552V16.8809H16.1016Z" fill="white"/>
</g>
<defs>
<clipPath id="clip0_778_12316">
<rect width="33" height="22" fill="white"/>
</clipPath>
</defs>
</svg>
