<svg width="51" height="30" viewBox="0 0 51 30" fill="none" xmlns="http://www.w3.org/2000/svg">
<g clip-path="url(#clip0_778_12216)">
<path d="M51 2.69922H0V26.6992H51V2.69922Z" fill="#F6F6F6"/>
<path fill-rule="evenodd" clip-rule="evenodd" d="M47.175 3.0344e-07C44.625 5.29934e-07 17.6271 -4.80955e-07 2.55 3.0344e-07C1.275 3.69773e-07 0 1.2 0 2.4V6H51C51 6 51 11.5716 51 3.6C51 1.2 49.725 3.0344e-07 47.175 3.0344e-07Z" fill="#265697"/>
<path fill-rule="evenodd" clip-rule="evenodd" d="M0 24C0 24 3.08031e-07 24 0 26.4C-1.4753e-07 28.8 1.275 30 3.825 30C18.0486 30 44.625 30 47.175 30C49.725 30 51 28.8 51 26.4V24H0Z" fill="#D97B16"/>
<path fill-rule="evenodd" clip-rule="evenodd" d="M35.5757 8.93502C34.8609 8.67714 33.7409 8.40039 32.3422 8.40039C28.7773 8.40039 26.2662 10.1269 26.2448 12.6012C26.2247 14.4303 28.0375 15.4506 29.406 16.0596C30.8103 16.6835 31.2824 17.0814 31.2757 17.6386C31.2668 18.4918 30.1542 18.8816 29.1173 18.8816C27.6733 18.8816 26.9061 18.6887 25.7213 18.2135L25.2564 18.0112L24.75 20.8607C25.5926 21.216 27.1509 21.5239 28.7688 21.5399C32.5612 21.5399 35.0232 19.8332 35.0511 17.1909C35.0647 15.7428 34.1035 14.6408 32.0221 13.7323C30.7611 13.1435 29.9888 12.7505 29.997 12.1543C29.997 11.6252 30.6506 11.0594 32.063 11.0594C33.2428 11.0418 34.0974 11.2892 34.7633 11.5471L35.0866 11.694L35.5757 8.93502Z" fill="#265697"/>
<path fill-rule="evenodd" clip-rule="evenodd" d="M44.8319 8.63281H42.0441C41.1805 8.63281 40.5342 8.85949 40.155 9.68842L34.7969 21.354H38.5853C38.5853 21.354 39.2047 19.7855 39.3448 19.4411C39.7588 19.4411 43.4392 19.4466 43.9653 19.4466C44.0733 19.8922 44.4042 21.354 44.4042 21.354H47.7519L44.8319 8.63281ZM40.3831 16.8375C40.6815 16.1041 41.8205 13.2791 41.8205 13.2791C41.7992 13.313 42.1167 12.5421 42.2989 12.0642L42.5427 13.1616C42.5427 13.1616 43.2335 16.2002 43.3779 16.8374L40.3831 16.8375Z" fill="#265697"/>
<path fill-rule="evenodd" clip-rule="evenodd" d="M18.8828 21.3504L21.1385 8.62109H24.7463L22.4891 21.3504H18.8828Z" fill="#265697"/>
<path fill-rule="evenodd" clip-rule="evenodd" d="M15.8582 8.63086L12.326 17.3113L11.9497 15.5473C11.2922 13.5138 9.24347 11.3105 6.95312 10.2075L10.1828 21.3399L14 21.3358L19.6798 8.63086H15.8582Z" fill="#265697"/>
<path fill-rule="evenodd" clip-rule="evenodd" d="M9.05109 8.62305H3.23355L3.1875 8.88789C7.71349 9.94155 10.7083 12.4879 11.9514 15.5473L10.6865 9.69771C10.4681 8.89166 9.83466 8.65114 9.05109 8.62305Z" fill="#D97B16"/>
</g>
<defs>
<clipPath id="clip0_778_12216">
<rect width="51" height="30" fill="white"/>
</clipPath>
</defs>
</svg>
