<svg width="24" height="27" viewBox="0 0 24 27" fill="none" xmlns="http://www.w3.org/2000/svg">
<path d="M1 15.1252V12.0984C1 5.94381 5.94381 1 12.0984 1C18.2529 1 23.1967 5.94381 23.1967 12.0984V15.1252" stroke="white" stroke-width="1.5" stroke-miterlimit="10" stroke-linejoin="round"/>
<path d="M23.197 15.1252C23.197 20.6744 19.1612 25.3156 13.8138 26.1227C12.9058 26.2236 12.0986 25.5173 12.0986 24.6093C12.0986 23.8021 12.704 23.1968 13.5112 23.1968C14.4192 23.1968 15.1255 23.903 15.1255 24.8111V25.2147" stroke="white" stroke-width="1.5" stroke-miterlimit="10" stroke-linejoin="round"/>
<path d="M5.03577 11.0894C2.81609 11.0894 1 12.9054 1 15.1251C1 17.3448 2.81609 19.1609 5.03577 19.1609V11.0894Z" stroke="white" stroke-width="1.5" stroke-miterlimit="10" stroke-linejoin="round"/>
<path d="M19.1611 19.1609C21.3808 19.1609 23.1969 17.3448 23.1969 15.1251C23.1969 12.9054 21.3808 11.0894 19.1611 11.0894V19.1609Z" stroke="white" stroke-width="1.5" stroke-miterlimit="10" stroke-linejoin="round"/>
</svg>
