<svg width="26" height="26" viewBox="0 0 26 26" fill="none" xmlns="http://www.w3.org/2000/svg">
<path d="M13 0C5.81875 0 0 5.81875 0 13C0 20.1812 5.81875 26 13 26C20.1812 26 26 20.1812 26 13C26 5.81875 20.1812 0 13 0ZM13 24.9187C6.43125 24.9187 1.08125 19.575 1.08125 13C1.08125 6.43125 6.425 1.08125 13 1.08125C19.5688 1.08125 24.9187 6.425 24.9187 13C24.9187 19.5687 19.5688 24.9187 13 24.9187Z" fill="white"/>
<path d="M13.575 7C11.2904 7 10.0159 8.07356 10 10.2894H10.9942C10.9625 8.68173 11.8139 7.83029 13.5274 7.83029C14.7543 7.83029 15.7803 8.68702 15.7803 9.9351C15.7803 10.7442 15.3413 11.4 14.7543 11.95C13.5591 13.05 13.2207 13.8538 13.1625 15.3611H14.1673C14.2255 13.9966 14.1938 13.7375 15.3995 12.5423C16.2034 11.7913 16.7692 11.0457 16.7692 9.8875C16.7692 8.07885 15.3202 7 13.575 7Z" fill="white"/>
<path d="M13.6119 16.8523C13.1148 16.8523 12.7129 17.2489 12.7129 17.7408C12.7129 18.2326 13.1148 18.6345 13.6119 18.6345C14.109 18.6345 14.511 18.2379 14.511 17.7408C14.511 17.2489 14.109 16.8523 13.6119 16.8523Z" fill="white"/>
</svg>
