<svg width="45" height="37" viewBox="0 0 45 37" fill="none" xmlns="http://www.w3.org/2000/svg">
<path fill-rule="evenodd" clip-rule="evenodd" d="M44.0833 32.2446C44.0833 34.7189 41.9386 36.7238 39.2917 36.7238H4.79167C2.14475 36.7238 0 34.7189 0 32.2446V6.26545C0 4.28655 1.71637 2.68212 3.83333 2.68212H23.1639L30.9254 0.0537408C31.417 -0.11378 31.9614 0.123616 32.1406 0.581387L32.958 2.68212H36.4167C38.5336 2.68212 40.25 4.28655 40.25 6.26545V8.05712C42.367 8.05712 44.0833 9.66155 44.0833 11.6404V32.2446ZM3.83333 4.47378C2.77533 4.47378 1.91667 5.27645 1.91667 6.26545C1.91667 7.25445 2.77533 8.05712 3.83333 8.05712H7.13479H7.31592C7.32837 8.05264 7.33604 8.04278 7.3485 8.0383L17.8729 4.47378H3.83333ZM31.6997 4.63593L30.682 2.01651L28.7155 2.68212H28.7184L23.4341 4.47378H23.4245L12.8455 8.05712H33.0299L31.6997 4.63593ZM38.3333 6.26545C38.3333 5.27645 37.4747 4.47378 36.4167 4.47378H33.6538L35.0472 8.05712H38.3333V6.26545ZM40.25 9.84878H3.83333C3.13183 9.84878 2.48208 9.65976 1.91667 9.35159V32.2446C1.91667 33.729 3.20467 34.9321 4.79167 34.9321H39.2917C40.8796 34.9321 42.1667 33.729 42.1667 32.2446V25.9738H38.3333C36.2164 25.9738 34.5 24.3693 34.5 22.3904C34.5 20.4116 36.2164 18.8071 38.3333 18.8071H42.1667V11.6404C42.1667 10.6514 41.308 9.84878 40.25 9.84878ZM42.1667 24.1821V20.5988H38.3333C37.2753 20.5988 36.4167 21.4014 36.4167 22.3904C36.4167 23.3794 37.2753 24.1821 38.3333 24.1821H42.1667ZM38.3333 21.4946H40.25V23.2863H38.3333V21.4946Z" fill="#008631"/>
</svg>
