<svg width="57" height="50" viewBox="0 0 57 50" fill="none" xmlns="http://www.w3.org/2000/svg">
<path d="M49.4118 7.05882H42.3529L35.2941 0H21.1747L14.1176 7.05882H7.05882C7.05882 7.05882 0 7.05882 0 14.1176V35.2941C0 42.3529 7.05882 42.3529 7.05882 42.3529C7.05882 42.3529 17.0506 42.3529 27.3847 42.3529C30.2329 46.6076 35.0806 49.41 40.5882 49.4118C47.4265 49.4082 53.2359 45.0812 55.4753 39.0212C56.4618 37.1929 56.4706 35.2941 56.4706 35.2941C56.4706 35.2941 56.4706 21.1765 56.4706 14.1176C56.4706 7.05882 49.4118 7.05882 49.4118 7.05882ZM24.7641 34.6941C20.6224 33.2594 17.6471 29.34 17.6471 24.7059C17.6471 18.8612 22.3835 14.1176 28.2353 14.1176C31.6129 14.1176 34.6006 15.72 36.54 18.1871C29.7318 19.9782 24.7059 26.1565 24.7059 33.5294C24.7059 33.9229 24.7376 34.3076 24.7641 34.6941ZM40.5882 45.6759C33.8806 45.66 28.4541 40.2335 28.4382 33.5294C28.4541 26.8218 33.8806 21.3953 40.5882 21.3794C47.2924 21.3953 52.7188 26.8218 52.7347 33.5294C52.7188 40.2335 47.2924 45.66 40.5882 45.6759Z" fill="#008631"/>
<path d="M49.4127 31.7639H42.3574V24.7051H38.8244V31.7639H31.7656V35.2933H38.8244V42.3521H42.3574V35.2933H49.4127V31.7639Z" fill="#008631"/>
</svg>
