<svg width="23" height="26" viewBox="0 0 23 26" fill="none" xmlns="http://www.w3.org/2000/svg">
<path d="M18.2 19.9333C17.7207 19.9333 17.3333 20.3216 17.3333 20.8V24.2667H1.73333V1.73333H10.4V7.8C10.4 8.2784 10.7874 8.66667 11.2667 8.66667H17.3333V12.1333C17.3333 12.6117 17.7207 13 18.2 13C18.6793 13 19.0667 12.6117 19.0667 12.1333V7.88407C19.0693 7.85547 19.084 7.82947 19.084 7.8C19.084 7.50793 18.9401 7.24967 18.7191 7.0928L11.8794 0.253933C11.8049 0.180267 11.7173 0.126533 11.6263 0.0849334C11.5995 0.0719334 11.5717 0.065 11.5423 0.0554667C11.4712 0.0312 11.3984 0.0164667 11.323 0.0121334C11.3039 0.0104001 11.2857 0 11.2667 0H0.866667C0.3874 0 0 0.388267 0 0.866667V25.1333C0 25.6117 0.3874 26 0.866667 26H18.2C18.6793 26 19.0667 25.6117 19.0667 25.1333V20.8C19.0667 20.3216 18.6793 19.9333 18.2 19.9333ZM12.1333 6.93333V2.9588L16.1079 6.93333H12.1333Z" fill="white"/>
<path d="M22.2991 12.408C21.9706 12.0578 21.4238 12.0405 21.0736 12.3672L12.4035 20.4792L8.3917 16.7248C8.04156 16.3972 7.49383 16.4154 7.16623 16.7656C6.8395 17.1148 6.8577 17.6634 7.20697 17.9902L11.8116 22.2984C11.978 22.4544 12.1912 22.5324 12.4044 22.5324C12.6176 22.5324 12.8299 22.4544 12.9972 22.2984L22.2601 13.6317C22.6085 13.3058 22.6258 12.7572 22.2991 12.408Z" fill="white"/>
</svg>
