<svg width="29" height="29" viewBox="0 0 29 29" fill="none" xmlns="http://www.w3.org/2000/svg">
<path d="M14.1009 27.2018C21.3364 27.2018 27.2018 21.3364 27.2018 14.1009C27.2018 6.86548 21.3364 1 14.1009 1C6.86548 1 1 6.86548 1 14.1009C1 21.3364 6.86548 27.2018 14.1009 27.2018Z" stroke="white" stroke-width="2" stroke-miterlimit="10" stroke-linecap="round" stroke-linejoin="round"/>
<path d="M14.1012 17.2256C10.0434 17.2256 6.56523 19.5443 4.82617 23.0225C7.14492 25.4571 10.5071 26.8484 14.1012 26.8484C17.6952 26.8484 21.0574 25.3412 23.3761 23.0225C21.6371 19.6603 18.159 17.2256 14.1012 17.2256Z" fill="white"/>
<path d="M14.1015 14.449C16.4066 14.449 18.2752 12.5804 18.2752 10.2753C18.2752 7.97021 16.4066 6.10156 14.1015 6.10156C11.7964 6.10156 9.92773 7.97021 9.92773 10.2753C9.92773 12.5804 11.7964 14.449 14.1015 14.449Z" fill="white"/>
</svg>
