<svg width="24" height="28" viewBox="0 0 24 28" fill="none" xmlns="http://www.w3.org/2000/svg">
<path d="M1 15.5588V12.5319C1 6.37741 5.94381 1.43359 12.0984 1.43359C18.2529 1.43359 23.1967 6.37741 23.1967 12.5319V15.5588" stroke="#00B341" stroke-width="1.5" stroke-miterlimit="10" stroke-linejoin="round"/>
<path d="M23.197 15.5586C23.197 21.1078 19.1612 25.7489 13.8138 26.5561C12.9058 26.6569 12.0986 25.9507 12.0986 25.0426C12.0986 24.2355 12.704 23.6301 13.5112 23.6301C14.4192 23.6301 15.1255 24.3364 15.1255 25.2444V25.648" stroke="#00B341" stroke-width="1.5" stroke-miterlimit="10" stroke-linejoin="round"/>
<path d="M5.03577 11.5234C2.81609 11.5234 1 13.3395 1 15.5592C1 17.7789 2.81609 19.595 5.03577 19.595V11.5234Z" stroke="#00B341" stroke-width="1.5" stroke-miterlimit="10" stroke-linejoin="round"/>
<path d="M19.1611 19.595C21.3808 19.595 23.1969 17.7789 23.1969 15.5592C23.1969 13.3395 21.3808 11.5234 19.1611 11.5234V19.595Z" stroke="#00B341" stroke-width="1.5" stroke-miterlimit="10" stroke-linejoin="round"/>
</svg>
