<svg width="21" height="21" viewBox="0 0 21 21" fill="none" xmlns="http://www.w3.org/2000/svg">
<path d="M18.0664 17.3393C18.0664 18.2732 17.3072 19.0608 16.373 19.0608H2.82267C1.8885 19.0608 1.12928 18.2732 1.12928 17.3393V3.79318C1.12928 2.85929 1.8885 2.12787 2.82267 2.12787H10.7266V1H2.82267C1.26607 1 0 2.23811 0 3.79424V17.3393C0 18.8954 1.26607 20.1887 2.82267 20.1887H16.3719C17.9285 20.1887 19.1946 18.8944 19.1946 17.3393V9.4654H18.0653V17.3393H18.0664Z" fill="#008631"/>
<path d="M19.3398 0.639993C18.4873 -0.213331 16.9996 -0.213331 16.146 0.639993L8.5719 8.21179C8.4998 8.28387 8.44784 8.37503 8.42345 8.47361L7.62606 11.6654C7.57834 11.8572 7.63454 12.0608 7.77451 12.2017C7.88161 12.3088 8.02581 12.3671 8.1732 12.3671C8.2188 12.3671 8.26439 12.3618 8.30999 12.3501L11.5038 11.5519C11.6035 11.5276 11.6936 11.4756 11.7657 11.4035L19.3398 3.83174C19.7661 3.40561 20.0015 2.8385 20.0015 2.23534C20.0015 1.63218 19.7672 1.06613 19.3398 0.639993ZM11.0786 10.4951L8.94939 11.0272L9.48169 8.89869L15.7473 2.63497L17.3442 4.23137L11.0786 10.4951ZM18.5414 3.03354L18.1427 3.43211L16.5458 1.83571L16.9445 1.43714C17.3707 1.011 18.1151 1.011 18.5414 1.43714C18.7545 1.6502 18.8722 1.93323 18.8722 2.23534C18.8722 2.53745 18.7545 2.82047 18.5414 3.03354Z" fill="#008631"/>
</svg>
