<svg width="13" height="17" viewBox="0 0 13 17" fill="none" xmlns="http://www.w3.org/2000/svg">
<path d="M6.375 17L6.03348 16.6046C5.80581 16.3171 0 9.88372 0 6.03806C0 2.69557 2.88393 0 6.375 0C9.86607 0 12.75 2.73151 12.75 6.03806C12.75 9.88372 6.94419 16.3531 6.71652 16.6046L6.375 17ZM6.375 0.826645C3.33929 0.826645 0.910718 3.16279 0.910718 6.00212C0.910718 9.02114 5.12277 14.1607 6.375 15.6342C7.62723 14.1607 11.8393 9.05708 11.8393 6.00212C11.8393 3.16279 9.41071 0.826645 6.375 0.826645Z" fill="#E30613"/>
<path d="M6.375 8.49984C5.06763 8.49984 3.98438 7.34438 3.98438 5.94985C3.98438 4.55532 5.06763 3.39984 6.375 3.39984C7.68237 3.39984 8.76562 4.55532 8.76562 5.94985C8.76562 7.34438 7.68237 8.49984 6.375 8.49984ZM6.375 4.3561C5.55322 4.3561 4.88086 5.07329 4.88086 5.94985C4.88086 6.82641 5.55322 7.5436 6.375 7.5436C7.19678 7.5436 7.86914 6.82641 7.86914 5.94985C7.86914 5.07329 7.19678 4.3561 6.375 4.3561Z" fill="#E30613"/>
</svg>
