<svg width="20" height="26" viewBox="0 0 20 26" fill="none" xmlns="http://www.w3.org/2000/svg">
<path d="M19.0938 6.5H14.2188V0.40625C14.2188 0.298506 14.1759 0.195175 14.0998 0.118988C14.0236 0.0428012 13.9202 0 13.8125 0L12.1875 0C12.0798 0 11.9764 0.0428012 11.9002 0.118988C11.8241 0.195175 11.7812 0.298506 11.7812 0.40625V6.5H6.90625C6.79851 6.5 6.69517 6.5428 6.61899 6.61899C6.5428 6.69517 6.5 6.79851 6.5 6.90625V8.53125C6.5 8.63899 6.5428 8.74232 6.61899 8.81851C6.69517 8.8947 6.79851 8.9375 6.90625 8.9375H7.34256L7.56275 11.8121C7.57242 11.9184 7.62352 12.0166 7.705 12.0855C7.78648 12.1544 7.8918 12.1885 7.99821 12.1804C8.10461 12.1723 8.20355 12.1226 8.27365 12.0422C8.34374 11.9617 8.37936 11.8569 8.37281 11.7504L8.1575 8.9375H17.8429L17.5179 13.1475C17.0775 12.9867 16.599 12.9612 16.144 13.0743C16.12 13.08 16.0964 13.0873 16.0725 13.0938C15.9926 13.1165 15.9141 13.1436 15.8373 13.1751C15.8092 13.1861 15.7812 13.1962 15.7536 13.2084C15.6545 13.2512 15.5586 13.3007 15.4663 13.3567C14.9455 13.0326 14.3182 12.9259 13.7195 13.0597C13.6663 13.0705 13.6159 13.0918 13.5712 13.1223C13.5264 13.1529 13.4882 13.1921 13.4588 13.2377C13.4294 13.2832 13.4095 13.3342 13.4001 13.3875C13.3907 13.4409 13.3921 13.4957 13.4042 13.5485C13.4163 13.6013 13.4388 13.6512 13.4705 13.6952C13.5021 13.7392 13.5423 13.7764 13.5886 13.8046C13.6348 13.8329 13.6863 13.8516 13.7399 13.8596C13.7935 13.8677 13.8481 13.8649 13.9007 13.8515C14.1289 13.8025 14.3653 13.8057 14.5921 13.8609C14.8189 13.9161 15.0303 14.0219 15.2104 14.1704C15.2825 14.2281 15.372 14.2595 15.4643 14.2595C15.5566 14.2595 15.6462 14.2281 15.7182 14.1704C15.7848 14.1173 15.8556 14.0696 15.9299 14.0278C15.953 14.0144 15.9774 14.0047 16.001 13.9929C16.0517 13.9664 16.1038 13.9427 16.157 13.9218C16.1826 13.912 16.209 13.9051 16.2346 13.897C16.2879 13.8794 16.3421 13.8648 16.3971 13.8531C16.421 13.8482 16.445 13.8454 16.469 13.8413C16.5276 13.8321 16.5868 13.8262 16.6461 13.8239C16.666 13.8239 16.6867 13.8239 16.7066 13.8239C16.7703 13.8239 16.834 13.8279 16.8972 13.8361C16.9138 13.8361 16.9305 13.8397 16.9467 13.8426C17.013 13.8533 17.0786 13.8684 17.1429 13.8877L17.1864 13.9002C17.2493 13.9216 17.3108 13.947 17.3704 13.9762C17.3871 13.9843 17.4046 13.9908 17.4208 13.9994C17.431 14.0047 17.4399 14.012 17.4497 14.0173L16.5973 25.1875H13.8125C13.7048 25.1875 13.6014 25.2303 13.5252 25.3065C13.4491 25.3827 13.4062 25.486 13.4062 25.5937C13.4062 25.7015 13.4491 25.8048 13.5252 25.881C13.6014 25.9572 13.7048 26 13.8125 26H16.9739C17.0765 26.0003 17.1755 25.9618 17.2508 25.8921C17.3262 25.8225 17.3724 25.7269 17.3802 25.6246L18.237 14.4414L18.2808 13.832L18.6574 8.9375H19.0938C19.2015 8.9375 19.3048 8.8947 19.381 8.81851C19.4572 8.74232 19.5 8.63899 19.5 8.53125V6.90625C19.5 6.79851 19.4572 6.69517 19.381 6.61899C19.3048 6.5428 19.2015 6.5 19.0938 6.5ZM12.5938 0.8125H13.4062V6.5H12.5938V0.8125ZM18.6875 8.125H7.3125V7.3125H18.6875V8.125Z" fill="#00B341"/>
<path d="M12.0717 14.1724C10.315 13.4024 8.41783 13.0049 6.4998 13.0049C4.58177 13.0049 2.68455 13.4024 0.927875 14.1724C0.656662 14.2819 0.423872 14.4692 0.258776 14.7106C0.0936803 14.952 0.00364826 15.2369 0 15.5293V15.5732C0.00471548 15.8467 0.0853555 16.1135 0.232918 16.3439C0.38048 16.5742 0.589158 16.759 0.835656 16.8777C0.820912 16.9383 0.813143 17.0005 0.8125 17.0629V17.4692C0.812785 17.6454 0.870869 17.8166 0.977844 17.9567C0.953605 18.0121 0.934961 18.0698 0.922188 18.1289C0.862483 18.3502 0.825727 18.577 0.8125 18.8057C0.810793 18.9893 0.849633 19.1711 0.92625 19.3379C0.829762 19.5483 0.793854 19.7814 0.82256 20.011C0.851267 20.2407 0.94345 20.4578 1.08875 20.6379C0.915435 20.8218 0.817334 21.064 0.813799 21.3167C0.810265 21.5694 0.901553 21.8142 1.06966 22.0029C0.904087 22.217 0.813705 22.4798 0.8125 22.7504C0.813202 22.9236 0.851166 23.0945 0.923813 23.2517C0.611895 23.368 0.350781 23.5902 0.186139 23.8795C0.0214966 24.1689 -0.0361937 24.5068 0.0231583 24.8344C0.0825102 25.1619 0.255126 25.4582 0.510816 25.6714C0.766505 25.8845 1.08899 26.001 1.42188 26.0004H11.5781C11.911 26.001 12.2335 25.8845 12.4892 25.6714C12.7449 25.4582 12.9175 25.1619 12.9768 24.8344C13.0362 24.5068 12.9785 24.1689 12.8139 23.8795C12.6492 23.5902 12.3881 23.368 12.0762 23.2517C12.1488 23.0945 12.1868 22.9236 12.1875 22.7504C12.1866 22.4799 12.0967 22.2172 11.9316 22.0029C12.0997 21.8142 12.191 21.5694 12.1874 21.3167C12.1839 21.064 12.0858 20.8218 11.9125 20.6379C12.0578 20.4578 12.15 20.2407 12.1787 20.011C12.2074 19.7814 12.1715 19.5483 12.075 19.3379C12.1512 19.171 12.1896 18.9892 12.1875 18.8057C12.1743 18.5751 12.1375 18.3464 12.0778 18.1232C12.0651 18.0652 12.0467 18.0086 12.023 17.9542C12.1291 17.8147 12.1869 17.6444 12.1875 17.4692V17.0629C12.1869 17.0005 12.1791 16.9383 12.1643 16.8777C12.4108 16.759 12.6195 16.5742 12.7671 16.3439C12.9146 16.1135 12.9953 15.8467 13 15.5732V15.5293C12.9964 15.2368 12.9063 14.9519 12.7411 14.7105C12.5759 14.469 12.343 14.2818 12.0717 14.1724ZM11.375 17.4692H1.625V17.0629H11.375V17.4692ZM11.375 18.8057C11.3809 18.8602 11.3728 18.9153 11.3515 18.9658C11.3302 19.0162 11.2963 19.0604 11.2531 19.0942C11.1981 19.0558 11.1602 18.9975 11.1475 18.9317C11.1253 18.8452 11.0749 18.7687 11.0042 18.7143C10.9336 18.6598 10.8467 18.6305 10.7575 18.631H10.6925C10.6028 18.6306 10.5156 18.6599 10.4443 18.7143C10.373 18.7687 10.3217 18.8451 10.2984 18.9317C10.2934 18.9642 10.2818 18.9954 10.2643 19.0233C10.2468 19.0512 10.2239 19.0753 10.1969 19.0942C10.1698 19.0753 10.1469 19.0512 10.1295 19.0233C10.112 18.9954 10.1004 18.9642 10.0953 18.9317C10.072 18.8451 10.0207 18.7687 9.94944 18.7143C9.87816 18.6599 9.7909 18.6306 9.70125 18.631H9.63625C9.54703 18.6305 9.4602 18.6598 9.38953 18.7143C9.31887 18.7687 9.26844 18.8452 9.24625 18.9317C9.23358 18.9975 9.19568 19.0558 9.14062 19.0942C9.08557 19.0558 9.04767 18.9975 9.035 18.9317C9.01281 18.8452 8.96238 18.7687 8.89172 18.7143C8.82105 18.6598 8.73422 18.6305 8.645 18.631H8.58C8.49035 18.6306 8.40309 18.6599 8.33181 18.7143C8.26053 18.7687 8.20925 18.8451 8.18594 18.9317C8.18087 18.9642 8.16925 18.9954 8.15179 19.0233C8.13434 19.0512 8.1114 19.0753 8.08437 19.0942C8.05735 19.0753 8.03441 19.0512 8.01696 19.0233C7.9995 18.9954 7.98788 18.9642 7.98281 18.9317C7.9595 18.8451 7.90822 18.7687 7.83694 18.7143C7.76566 18.6599 7.6784 18.6306 7.58875 18.631H7.52375C7.43453 18.6305 7.3477 18.6598 7.27703 18.7143C7.20637 18.7687 7.15594 18.8452 7.13375 18.9317C7.12108 18.9975 7.08318 19.0558 7.02812 19.0942C7.0011 19.0753 6.97816 19.0512 6.9607 19.0233C6.94325 18.9954 6.93163 18.9642 6.92656 18.9317C6.90325 18.8451 6.85197 18.7687 6.78069 18.7143C6.70941 18.6599 6.62215 18.6306 6.5325 18.631H6.4675C6.37785 18.6306 6.29059 18.6599 6.21931 18.7143C6.14803 18.7687 6.09675 18.8451 6.07344 18.9317C6.06837 18.9642 6.05675 18.9954 6.0393 19.0233C6.02184 19.0512 5.9989 19.0753 5.97188 19.0942C5.91682 19.0558 5.87892 18.9975 5.86625 18.9317C5.84406 18.8452 5.79363 18.7687 5.72297 18.7143C5.6523 18.6598 5.56547 18.6305 5.47625 18.631H5.41125C5.3216 18.6306 5.23434 18.6599 5.16306 18.7143C5.09178 18.7687 5.0405 18.8451 5.01719 18.9317C5.01212 18.9642 5.0005 18.9954 4.98305 19.0233C4.96559 19.0512 4.94265 19.0753 4.91563 19.0942C4.8886 19.0753 4.86566 19.0512 4.84821 19.0233C4.83075 18.9954 4.81913 18.9642 4.81406 18.9317C4.79075 18.8451 4.73947 18.7687 4.66819 18.7143C4.59691 18.6599 4.50965 18.6306 4.42 18.631H4.355C4.26578 18.6305 4.17895 18.6598 4.10828 18.7143C4.03762 18.7687 3.98719 18.8452 3.965 18.9317C3.95233 18.9975 3.91443 19.0558 3.85938 19.0942C3.80432 19.0558 3.76642 18.9975 3.75375 18.9317C3.73156 18.8452 3.68113 18.7687 3.61047 18.7143C3.5398 18.6598 3.45297 18.6305 3.36375 18.631H3.29875C3.2091 18.6306 3.12184 18.6599 3.05056 18.7143C2.97928 18.7687 2.928 18.8451 2.90469 18.9317C2.89962 18.9642 2.888 18.9954 2.87055 19.0233C2.85309 19.0512 2.83015 19.0753 2.80312 19.0942C2.7761 19.0753 2.75316 19.0512 2.7357 19.0233C2.71825 18.9954 2.70663 18.9642 2.70156 18.9317C2.67825 18.8451 2.62697 18.7687 2.55569 18.7143C2.48441 18.6599 2.39715 18.6306 2.3075 18.631H2.2425C2.15328 18.6305 2.06645 18.6598 1.99578 18.7143C1.92512 18.7687 1.87469 18.8452 1.8525 18.9317C1.83983 18.9975 1.80193 19.0558 1.74688 19.0942C1.70368 19.0604 1.66981 19.0162 1.64848 18.9658C1.62715 18.9153 1.61907 18.8602 1.625 18.8057C1.62676 18.762 1.6322 18.7185 1.64125 18.6757C1.65344 18.5985 1.67375 18.4807 1.71438 18.2979C1.71438 18.2939 1.71844 18.2857 1.71844 18.2817H11.2816C11.2816 18.2857 11.2856 18.2939 11.2856 18.2979C11.3262 18.4807 11.3466 18.5985 11.3587 18.6757C11.3678 18.7185 11.3732 18.762 11.375 18.8057ZM11.1719 21.1254C11.2257 21.1254 11.2774 21.1468 11.3155 21.1849C11.3536 21.223 11.375 21.2747 11.375 21.3285C11.375 21.3824 11.3536 21.4341 11.3155 21.4722C11.2774 21.5103 11.2257 21.5317 11.1719 21.5317H9.34375C9.23605 21.5325 9.13278 21.5746 9.05531 21.6495L8.53125 22.1776L8.00719 21.6495C7.92972 21.5746 7.82645 21.5325 7.71875 21.5317H1.82812C1.77425 21.5317 1.72259 21.5103 1.68449 21.4722C1.6464 21.4341 1.625 21.3824 1.625 21.3285C1.625 21.2747 1.6464 21.223 1.68449 21.1849C1.72259 21.1468 1.77425 21.1254 1.82812 21.1254H11.1719ZM10.9688 23.1567H2.03125C1.92351 23.1567 1.82017 23.1139 1.74399 23.0377C1.6678 22.9615 1.625 22.8582 1.625 22.7504C1.625 22.6427 1.6678 22.5393 1.74399 22.4632C1.82017 22.387 1.92351 22.3442 2.03125 22.3442H7.55219L8.24281 23.0389C8.31982 23.1144 8.42338 23.1567 8.53125 23.1567C8.63912 23.1567 8.74268 23.1144 8.81969 23.0389L9.51031 22.3442H10.9688C11.0765 22.3442 11.1798 22.387 11.256 22.4632C11.3322 22.5393 11.375 22.6427 11.375 22.7504C11.375 22.8582 11.3322 22.9615 11.256 23.0377C11.1798 23.1139 11.0765 23.1567 10.9688 23.1567ZM10.9241 20.3129H2.07594C1.96284 20.3132 1.85384 20.2706 1.77091 20.1937C1.68798 20.1168 1.63729 20.0113 1.62906 19.8985C1.66817 19.9033 1.70749 19.906 1.74688 19.9067C1.9397 19.906 2.12632 19.8385 2.275 19.7157C2.42548 19.8343 2.61151 19.8988 2.80312 19.8988C2.99474 19.8988 3.18077 19.8343 3.33125 19.7157C3.48173 19.8343 3.66776 19.8988 3.85938 19.8988C4.05099 19.8988 4.23702 19.8343 4.3875 19.7157C4.53798 19.8343 4.72401 19.8988 4.91563 19.8988C5.10724 19.8988 5.29327 19.8343 5.44375 19.7157C5.59423 19.8343 5.78026 19.8988 5.97188 19.8988C6.16349 19.8988 6.34952 19.8343 6.5 19.7157C6.65048 19.8343 6.83651 19.8988 7.02812 19.8988C7.21974 19.8988 7.40577 19.8343 7.55625 19.7157C7.70673 19.8343 7.89276 19.8988 8.08437 19.8988C8.27599 19.8988 8.46202 19.8343 8.6125 19.7157C8.76298 19.8343 8.94901 19.8988 9.14062 19.8988C9.33224 19.8988 9.51827 19.8343 9.66875 19.7157C9.81923 19.8343 10.0053 19.8988 10.1969 19.8988C10.3885 19.8988 10.5745 19.8343 10.725 19.7157C10.8737 19.8385 11.0603 19.906 11.2531 19.9067C11.2925 19.906 11.3318 19.9033 11.3709 19.8985C11.3627 20.0113 11.312 20.1168 11.2291 20.1937C11.1462 20.2706 11.0372 20.3132 10.9241 20.3129ZM11.5781 25.1879H1.42188C1.26026 25.1879 1.10526 25.1237 0.990982 25.0094C0.876702 24.8952 0.8125 24.7402 0.8125 24.5785C0.8125 24.4169 0.876702 24.2619 0.990982 24.1476C1.10526 24.0334 1.26026 23.9692 1.42188 23.9692H11.5781C11.7397 23.9692 11.8947 24.0334 12.009 24.1476C12.1233 24.2619 12.1875 24.4169 12.1875 24.5785C12.1875 24.7402 12.1233 24.8952 12.009 25.0094C11.8947 25.1237 11.7397 25.1879 11.5781 25.1879ZM12.1875 15.5732C12.1736 15.7649 12.0849 15.9433 11.9404 16.0701C11.796 16.1968 11.6075 16.2616 11.4156 16.2504H1.58437C1.39254 16.2616 1.20402 16.1968 1.05957 16.0701C0.915129 15.9433 0.826373 15.7649 0.8125 15.5732V15.5293C0.816215 15.3966 0.859123 15.2679 0.935822 15.1594C1.01252 15.051 1.11958 14.9677 1.24353 14.9199C2.90391 14.2035 4.69168 13.8292 6.5 13.8194C8.3083 13.8297 10.0959 14.2046 11.7561 14.9216C11.8798 14.9691 11.9868 15.0522 12.0636 15.1603C12.1403 15.2684 12.1834 15.3968 12.1875 15.5293V15.5732Z" fill="#00B341"/>
</svg>
