<svg width="23" height="27" viewBox="0 0 23 27" fill="none" xmlns="http://www.w3.org/2000/svg">
<path d="M21.3261 0H11.3693C10.9254 4.26422e-06 10.4996 0.176363 10.1857 0.490279C9.87179 0.804196 9.69543 1.22996 9.69543 1.6739V6.83801H8.56416C8.06793 6.83856 7.59219 7.03593 7.2413 7.38681C6.89041 7.7377 6.69303 8.21345 6.69248 8.70968V10.8576C6.69248 10.9429 6.72636 11.0246 6.78667 11.0849C6.84697 11.1453 6.92876 11.1791 7.01405 11.1791C7.09933 11.1791 7.18112 11.1453 7.24143 11.0849C7.30173 11.0246 7.33561 10.9429 7.33561 10.8576V8.70968C7.33598 8.38397 7.46554 8.0717 7.69585 7.84139C7.92617 7.61108 8.23844 7.48153 8.56415 7.48117H9.69542V16.0366C9.63392 16.0453 9.57464 16.055 9.5176 16.0655C9.18449 15.7179 8.72091 15.5679 8.32865 15.5067C8.67519 14.9182 8.76683 14.1534 8.55293 13.5567C8.3588 13.0151 7.94774 12.6397 7.36411 12.4711C6.3509 12.1784 5.8161 12.603 5.55881 12.9582C5.20112 12.5182 4.66958 12.406 4.07978 12.6526L4.06177 12.6608C3.34579 13.0132 3.00904 13.6999 3.10293 14.6052C2.7216 14.466 2.15451 14.4002 1.419 14.7019C0.683383 15.0035 0.212497 15.6476 0.159374 16.4248C0.133102 16.8224 0.219514 17.2194 0.408684 17.5701C0.597855 17.9208 0.882111 18.211 1.2288 18.4074C1.25253 18.4212 1.27509 18.4356 1.29826 18.4497C0.163978 18.8038 0 19.1846 0 19.4683V19.4972C0.000496971 19.9567 0.138354 20.4056 0.395865 20.7862C0.653377 21.1668 1.01878 21.4617 1.44515 21.633C2.22426 21.9516 3.61594 22.716 4.18239 24.2565C4.20752 24.3247 4.2509 24.4618 4.27294 24.5326C4.35008 25.0248 4.8899 25.4207 5.87831 25.7098C6.75901 25.9673 7.91406 26.1092 9.13072 26.1092C11.3313 26.1092 13.7764 25.624 13.9847 24.5594C14.0118 24.4728 14.0731 24.2817 14.1093 24.19C14.2781 23.7666 14.5181 23.3753 14.819 23.0329H21.3261C21.5459 23.0329 21.7636 22.9896 21.9667 22.9055C22.1698 22.8214 22.3543 22.6981 22.5097 22.5427C22.6652 22.3872 22.7885 22.2027 22.8726 21.9996C22.9567 21.7965 23 21.5789 23 21.359V1.6739C23 1.45408 22.9567 1.23641 22.8726 1.03332C22.7885 0.830237 22.6652 0.645707 22.5097 0.490271C22.3543 0.334835 22.1698 0.211537 21.9667 0.127416C21.7636 0.0432954 21.5459 -7.03805e-07 21.3261 0ZM17.3347 0.836973H17.9398C17.982 0.836973 18.0239 0.845291 18.0629 0.861451C18.1019 0.877611 18.1373 0.901298 18.1672 0.931158C18.1971 0.961018 18.2208 0.996468 18.2369 1.03548C18.2531 1.0745 18.2614 1.11631 18.2614 1.15854C18.2614 1.20077 18.2531 1.24258 18.2369 1.2816C18.2208 1.32061 18.1971 1.35606 18.1672 1.38592C18.1373 1.41578 18.1019 1.43947 18.0629 1.45563C18.0239 1.47179 17.982 1.48011 17.9398 1.48011H17.3347C17.2495 1.48011 17.1677 1.44623 17.1074 1.38592C17.0471 1.32562 17.0132 1.24382 17.0132 1.15854C17.0132 1.07326 17.0471 0.991463 17.1074 0.931158C17.1677 0.870853 17.2495 0.836973 17.3347 0.836973ZM14.7556 0.836973H16.2683C16.3105 0.836973 16.3523 0.845291 16.3914 0.861451C16.4304 0.877611 16.4658 0.901298 16.4957 0.931158C16.5255 0.961018 16.5492 0.996468 16.5654 1.03548C16.5815 1.0745 16.5899 1.11631 16.5899 1.15854C16.5899 1.20077 16.5815 1.24258 16.5654 1.2816C16.5492 1.32061 16.5255 1.35606 16.4957 1.38592C16.4658 1.41578 16.4304 1.43947 16.3914 1.45563C16.3523 1.47179 16.3105 1.48011 16.2683 1.48011H14.7556C14.6703 1.48011 14.5885 1.44623 14.5282 1.38592C14.4679 1.32562 14.434 1.24382 14.434 1.15854C14.434 1.07326 14.4679 0.991463 14.5282 0.931158C14.5885 0.870853 14.6703 0.836973 14.7556 0.836973ZM12.7455 17.1606C12.8274 17.1804 12.9074 17.2013 12.9855 17.2233C13.622 17.4028 13.9353 17.598 14.0544 17.7037C13.9499 17.8045 13.6724 17.989 13.0967 18.1574C12.4014 18.3608 11.5054 18.4728 10.5738 18.4728C9.64211 18.4728 8.74613 18.3607 8.05079 18.1574C7.47515 17.989 7.19757 17.8045 7.09313 17.7037C7.21225 17.598 7.52547 17.4028 8.16203 17.2233C8.20169 17.2121 8.24274 17.2016 8.28348 17.191C8.65077 17.4849 9.50365 17.691 10.4971 17.691C11.5243 17.691 12.4005 17.4705 12.7455 17.1606ZM10.7266 16.7852C10.7266 16.6294 11.0063 16.5032 11.3512 16.5032C11.6961 16.5032 11.9758 16.6294 11.9758 16.7852C11.9758 16.941 11.6961 17.0673 11.3512 17.0673C11.0062 17.0673 10.7266 16.941 10.7266 16.7852ZM4.60342 19.0673C4.6021 18.9205 4.63274 18.7752 4.69321 18.6414C4.75368 18.5076 4.84254 18.3886 4.95362 18.2926C5.35971 17.9423 5.88434 17.7605 6.42011 17.7843C6.51128 18.2666 7.30288 18.6833 8.45089 18.9167C7.91558 19.3552 7.20984 19.636 6.63692 19.8071L4.64087 19.7967C4.61766 19.5468 4.60497 19.303 4.60342 19.0673ZM0.801044 16.4687C0.817932 16.2115 0.908065 15.9645 1.0608 15.7568C1.21354 15.5492 1.42249 15.3896 1.663 15.2969C2.16739 15.0901 2.61248 15.0752 2.9856 15.2526C3.0754 15.2953 3.17518 15.3128 3.27416 15.303C3.37315 15.2932 3.46759 15.2566 3.54732 15.1972C3.62704 15.1377 3.68902 15.0576 3.72657 14.9655C3.76412 14.8734 3.77582 14.7728 3.76041 14.6745C3.64951 13.9715 3.84348 13.4896 4.33702 13.2421C4.68737 13.0983 4.92483 13.1558 5.10661 13.4276C5.15764 13.5048 5.22743 13.5678 5.30944 13.6107C5.39145 13.6536 5.483 13.675 5.57553 13.6729C5.66806 13.6708 5.75855 13.6453 5.83853 13.5987C5.91852 13.5522 5.98539 13.4861 6.03289 13.4066C6.25543 13.0331 6.63242 12.9292 7.18564 13.089C7.56792 13.1994 7.82427 13.4298 7.94753 13.7737C8.10847 14.2227 8.01345 14.8388 7.71635 15.2719C7.66253 15.3498 7.62989 15.4404 7.62163 15.5348C7.61336 15.6292 7.62975 15.7241 7.6692 15.8102C7.70864 15.8963 7.76978 15.9707 7.84663 16.0261C7.92348 16.0815 8.01341 16.116 8.10759 16.1262C8.3276 16.1463 8.54275 16.2028 8.74423 16.2934C8.60543 16.3493 8.47421 16.4224 8.35368 16.5111C7.6597 16.6703 7.07835 16.8978 6.73722 17.1649C5.93314 17.0629 5.31968 17.2725 4.88028 17.5474C4.86591 17.5563 4.84927 17.5607 4.83239 17.5603C4.81552 17.5599 4.79914 17.5545 4.78525 17.5449C4.77136 17.5353 4.76057 17.5219 4.75419 17.5063C4.74781 17.4906 4.74612 17.4735 4.74933 17.4569C5.05661 15.8342 5.7419 14.8342 5.75631 14.8141C5.80557 14.7444 5.8251 14.658 5.81063 14.5739C5.79616 14.4897 5.74886 14.4148 5.67914 14.3655C5.64462 14.3412 5.60563 14.3238 5.5644 14.3145C5.52318 14.3052 5.48052 14.3041 5.43886 14.3112C5.35474 14.3257 5.2798 14.373 5.23055 14.4427C5.19025 14.4999 4.61806 15.3264 4.25481 16.7008C4.24974 16.7201 4.23953 16.7376 4.22527 16.7516C4.21101 16.7655 4.19322 16.7753 4.17382 16.7799C4.15443 16.7845 4.13414 16.7837 4.11515 16.7777C4.09615 16.7716 4.07915 16.7605 4.06597 16.7456C3.74353 16.3791 3.31983 16.1162 2.84825 15.99C2.76496 15.9717 2.67779 15.9872 2.60593 16.0331C2.53406 16.079 2.48339 16.1516 2.46505 16.2349C2.44672 16.3182 2.46222 16.4054 2.50815 16.4773C2.55409 16.5491 2.62669 16.5998 2.70998 16.6181C2.98244 16.6972 3.23319 16.8376 3.44304 17.0285C3.65288 17.2194 3.81625 17.4558 3.92064 17.7196C3.98282 17.8711 4.00774 18.0354 3.99329 18.1985C3.94698 18.7291 3.9474 19.2627 3.99455 19.7933L3.24012 19.7893C3.08864 19.4487 2.9003 19.1257 2.67845 18.8262C2.37232 18.4285 1.98896 18.0968 1.55139 17.8511C1.30896 17.7146 1.10996 17.5124 0.97723 17.2679C0.844503 17.0234 0.783436 16.7464 0.801044 16.4687ZM13.5111 23.9539C13.4552 24.0955 13.3543 24.4318 13.3543 24.4318C13.2963 24.7927 11.7947 25.466 9.13074 25.466C7.97349 25.466 6.88249 25.3334 6.05884 25.0925C5.17846 24.835 4.92075 24.5444 4.90745 24.4267C4.90745 24.4267 4.82633 24.1441 4.78603 24.0346C4.13442 22.2626 2.56568 21.3964 1.68855 21.0377C1.38057 20.9144 1.11649 20.7019 0.930209 20.4274C0.743929 20.1529 0.64396 19.829 0.643138 19.4972V19.4802C0.690141 19.3905 1.00822 19.1715 1.92982 18.9425C2.01384 19.0269 2.09204 19.1169 2.16388 19.2119C2.26859 19.3519 2.36431 19.4983 2.45046 19.6504C2.23862 19.6075 2.0299 19.5504 1.82573 19.4795C1.78601 19.4646 1.74375 19.4577 1.70137 19.4593C1.65899 19.4608 1.61733 19.4707 1.5788 19.4884C1.54026 19.5061 1.5056 19.5313 1.47682 19.5624C1.44804 19.5935 1.42571 19.6301 1.4111 19.6699C1.3965 19.7097 1.38991 19.752 1.39172 19.7944C1.39353 19.8367 1.40371 19.8783 1.42166 19.9168C1.43961 19.9552 1.46498 19.9897 1.49631 20.0182C1.52765 20.0468 1.56432 20.0689 1.60423 20.0833C2.73971 20.4998 5.82191 20.7907 9.0996 20.7907C12.1523 20.7907 15.0991 20.5402 16.4322 20.1675C16.5139 20.1441 16.5829 20.0894 16.6243 20.0153C16.6657 19.9411 16.6761 19.8536 16.6533 19.7719C16.6304 19.6901 16.5762 19.6207 16.5023 19.5788C16.4285 19.5369 16.341 19.5259 16.2591 19.5482C15.8344 19.6582 15.4033 19.7418 14.9683 19.7984C14.4785 19.3767 13.9324 19.0252 13.3457 18.7539C13.5396 18.6958 13.7294 18.6249 13.9139 18.5417C14.3307 18.5878 14.7269 18.6399 15.0964 18.6983C16.9931 18.9981 17.5545 19.3585 17.6183 19.4802V19.4972C17.6175 19.829 17.5175 20.1529 17.3312 20.4274C17.1449 20.7019 16.8808 20.9145 16.5728 21.0377C15.7218 21.3857 14.1924 22.2272 13.5111 23.9539ZM22.1217 21.1238C22.1217 21.3789 22.0203 21.6236 21.8399 21.804C21.6595 21.9844 21.4148 22.0858 21.1597 22.0858H15.9391C16.218 21.9101 16.5115 21.7586 16.8162 21.633C17.2426 21.4617 17.608 21.1667 17.8655 20.7862C18.123 20.4056 18.2609 19.9567 18.2614 19.4972V19.4683C18.2614 19.0869 17.9662 18.5299 15.4133 18.0984C15.1701 18.0573 14.9141 18.0193 14.6489 17.9836C14.705 17.8962 14.7356 17.7948 14.7372 17.691C14.7372 17.1655 13.7901 16.7067 12.5536 16.4597L12.5535 16.4596C12.5535 16.4596 11.931 16.0146 10.5737 15.9871V12.6197H12.1219C12.1956 13.0732 12.4227 13.4876 12.7653 13.7937C13.1079 14.0997 13.5452 14.2789 14.0041 14.3012C14.463 14.3235 14.9156 14.1875 15.2862 13.9161C15.6569 13.6447 15.9231 13.2542 16.0404 12.81C16.052 12.7638 16.0529 12.7156 16.043 12.669C16.0331 12.6224 16.0127 12.5787 15.9833 12.5413C15.9539 12.5038 15.9164 12.4735 15.8735 12.4528C15.8306 12.4321 15.7836 12.4214 15.736 12.4217H15.7189C15.6493 12.4222 15.5819 12.4455 15.5271 12.4882C15.4722 12.5309 15.4329 12.5905 15.4153 12.6577C15.3512 12.8919 15.2257 13.1047 15.0517 13.274C14.8777 13.4434 14.6617 13.5632 14.4259 13.621C14.1901 13.6788 13.9431 13.6726 13.7105 13.6029C13.4779 13.5332 13.2682 13.4026 13.103 13.2247C12.9379 13.0467 12.8233 12.8278 12.7711 12.5907C12.7189 12.3536 12.7311 12.1068 12.8063 11.876C12.8815 11.6451 13.0171 11.4386 13.199 11.2777C13.3808 11.1169 13.6024 11.0075 13.8407 10.961C13.9134 10.948 13.9793 10.91 14.0269 10.8536C14.0746 10.7972 14.1011 10.7259 14.1017 10.652V10.6358C14.1017 10.5897 14.0916 10.5442 14.072 10.5025C14.0524 10.4608 14.0239 10.4239 13.9885 10.3945C13.953 10.365 13.9115 10.3438 13.867 10.3322C13.8224 10.3206 13.7758 10.3189 13.7305 10.3274C13.3257 10.4043 12.9544 10.6038 12.6667 10.8988C12.3791 11.1938 12.189 11.57 12.1222 11.9766H10.5737V7.48114H12.1243C12.2008 7.93295 12.4298 8.34494 12.773 8.64852C13.1163 8.9521 13.5532 9.12896 14.0109 9.14966C14.4687 9.17035 14.9198 9.03363 15.289 8.76226C15.6583 8.49089 15.9234 8.10124 16.0404 7.65817C16.052 7.61199 16.0529 7.56376 16.043 7.51718C16.0331 7.47061 16.0127 7.42691 15.9833 7.38943C15.9539 7.35196 15.9164 7.3217 15.8735 7.30098C15.8306 7.28025 15.7836 7.26961 15.736 7.26986H15.7189C15.6493 7.27033 15.5819 7.29371 15.5271 7.33638C15.4722 7.37904 15.4329 7.43861 15.4153 7.50586C15.3512 7.74004 15.2257 7.95283 15.0517 8.1222C14.8777 8.29157 14.6617 8.41137 14.4259 8.46919C14.1901 8.52701 13.9431 8.52075 13.7105 8.45107C13.4779 8.38138 13.2682 8.2508 13.103 8.07283C12.9379 7.89487 12.8233 7.676 12.7711 7.43887C12.7189 7.20175 12.7311 6.95499 12.8063 6.72414C12.8815 6.49329 13.0171 6.28675 13.199 6.12588C13.3808 5.96502 13.6024 5.85569 13.8407 5.8092C13.9134 5.79619 13.9793 5.7582 14.0269 5.70178C14.0746 5.64536 14.1011 5.57406 14.1017 5.5002V5.48398C14.1017 5.4379 14.0916 5.39239 14.072 5.35068C14.0524 5.30897 14.0239 5.27208 13.9885 5.24264C13.953 5.21319 13.9115 5.19191 13.867 5.18032C13.8224 5.16872 13.7758 5.16708 13.7305 5.17553C13.3235 5.25295 12.9503 5.45422 12.6621 5.75181C12.3739 6.0494 12.1847 6.42877 12.1203 6.83803H10.5737V3.23254C10.5737 2.97739 10.6751 2.7327 10.8555 2.55229C11.0359 2.37187 11.2806 2.27052 11.5357 2.27052H21.1597C21.4148 2.27052 21.6595 2.37187 21.8399 2.55229C22.0203 2.7327 22.1217 2.97739 22.1217 3.23254L22.1217 21.1238Z" fill="#00B341"/>
<path d="M16.569 10.0292C15.8326 10.3378 15.229 10.9612 14.8883 11.3724L14.6635 11.0985C14.6002 11.0224 14.5093 10.9744 14.4107 10.965C14.3121 10.9556 14.2137 10.9856 14.1372 11.0484C14.0606 11.1113 14.012 11.2018 14.0019 11.3004C13.9919 11.3989 14.0212 11.4975 14.0835 11.5745L14.6095 12.2154C14.6447 12.2582 14.689 12.2927 14.7391 12.3164C14.7893 12.3401 14.8441 12.3524 14.8995 12.3524C14.9057 12.3524 14.9118 12.3522 14.918 12.3519C14.9765 12.349 15.0336 12.3324 15.0846 12.3035C15.1356 12.2746 15.1791 12.2342 15.2117 12.1855C15.2188 12.1747 15.9404 11.1062 16.8591 10.7212C16.9509 10.6827 17.0236 10.6094 17.0613 10.5173C17.099 10.4252 17.0986 10.3219 17.0601 10.2301C17.0216 10.1384 16.9483 10.0656 16.8562 10.028C16.7641 9.99027 16.6608 9.9907 16.5691 10.0292H16.569Z" fill="#00B341"/>
<path d="M16.569 5.02917C15.8326 5.3378 15.229 5.96117 14.8883 6.37243L14.6635 6.09849C14.6002 6.02235 14.5093 5.97436 14.4107 5.96498C14.3121 5.95561 14.2137 5.98561 14.1372 6.04845C14.0606 6.11128 14.012 6.20185 14.0019 6.30039C13.9919 6.39893 14.0212 6.49745 14.0835 6.57445L14.6095 7.21539C14.6447 7.25825 14.689 7.29276 14.7391 7.31645C14.7893 7.34014 14.8441 7.35241 14.8995 7.35239C14.9057 7.35239 14.9118 7.35223 14.918 7.35194C14.9765 7.34903 15.0336 7.33246 15.0846 7.30355C15.1356 7.27465 15.1791 7.23421 15.2117 7.18548C15.2188 7.17472 15.9404 6.10618 16.8591 5.72118C16.9046 5.70214 16.9458 5.67433 16.9805 5.63934C17.0152 5.60436 17.0427 5.56288 17.0613 5.51729C17.08 5.47169 17.0895 5.42286 17.0893 5.3736C17.0891 5.32433 17.0792 5.27558 17.0601 5.23014C17.0411 5.18471 17.0133 5.14346 16.9783 5.10877C16.9433 5.07408 16.9018 5.04662 16.8562 5.02796C16.8106 5.00929 16.7618 4.9998 16.7125 5C16.6633 5.00021 16.6145 5.01012 16.5691 5.02917H16.569Z" fill="#00B341"/>
</svg>
