<svg width="27" height="26" viewBox="0 0 27 26" fill="none" xmlns="http://www.w3.org/2000/svg">
<path d="M24.5561 6.99292C24.4885 6.86501 24.373 6.76906 24.2348 6.726C24.0967 6.68294 23.9471 6.69627 23.8188 6.76308C23.6904 6.82989 23.5937 6.94476 23.5497 7.08262C23.5058 7.22048 23.5181 7.37014 23.5841 7.49893C24.7601 9.74376 25.1863 12.3063 24.8001 14.8109C24.4138 17.3156 23.2356 19.6307 21.4379 21.4169C16.7958 26.0586 9.24178 26.06 4.59773 21.4165C4.52109 21.3398 4.42345 21.2877 4.31715 21.2665C4.21085 21.2454 4.10068 21.2563 4.00057 21.2978C3.90046 21.3393 3.81491 21.4096 3.75475 21.4998C3.69459 21.5899 3.66252 21.6959 3.6626 21.8042V24.9541C3.6626 25.0994 3.72032 25.2387 3.82306 25.3415C3.9258 25.4442 4.06515 25.5019 4.21044 25.5019C4.35574 25.5019 4.49509 25.4442 4.59783 25.3415C4.70057 25.2387 4.75829 25.0994 4.75829 24.9541V23.0415C7.07379 24.9446 9.97552 25.9895 12.9727 25.9997C15.9699 26.0098 18.8786 24.9845 21.207 23.0971C23.5353 21.2097 25.1403 18.5761 25.7506 15.6417C26.3608 12.7073 25.9389 9.6521 24.5561 6.99292Z" fill="#00B341"/>
<path d="M4.59769 4.57753C9.24125 -0.0655391 16.7953 -0.0650517 21.4379 4.57704C21.5144 4.65378 21.612 4.70607 21.7183 4.72728C21.8246 4.74849 21.9349 4.73768 22.035 4.6962C22.1351 4.65472 22.2207 4.58446 22.2809 4.4943C22.3411 4.40414 22.3731 4.29815 22.373 4.18975V1.0399C22.373 0.894606 22.3153 0.755258 22.2126 0.652517C22.1098 0.549776 21.9705 0.492057 21.8252 0.492057C21.6799 0.492057 21.5405 0.549776 21.4378 0.652517C21.335 0.755258 21.2773 0.894606 21.2773 1.0399V2.95251C16.1745 -1.2493 8.5922 -0.966612 3.82312 3.80247C1.85988 5.753 0.573071 8.28112 0.151304 11.0163C-0.270464 13.7514 0.194991 16.5497 1.47944 19.0011C1.5471 19.129 1.66261 19.2249 1.80075 19.268C1.9389 19.3111 2.08847 19.2977 2.21682 19.2309C2.34518 19.1641 2.44189 19.0492 2.48586 18.9114C2.52983 18.7735 2.51749 18.6239 2.45152 18.4951C1.27545 16.2503 0.849291 13.6879 1.23551 11.1833C1.62173 8.67873 2.80002 6.36371 4.59769 4.57753Z" fill="#00B341"/>
<path d="M5.84326 12.9175V18.9759C5.84443 19.3719 6.00228 19.7514 6.28233 20.0314C6.56238 20.3115 6.94187 20.4693 7.33792 20.4705H18.6972C19.0933 20.4694 19.4728 20.3116 19.7529 20.0315C20.0329 19.7514 20.1907 19.3719 20.1919 18.9759V12.9175C20.1907 12.5214 20.0329 12.1419 19.7528 11.8619C19.4728 11.5818 19.0933 11.424 18.6972 11.4229H7.33792C6.94187 11.424 6.56238 11.5819 6.28234 11.8619C6.00229 12.142 5.84444 12.5215 5.84326 12.9175ZM17.0033 14.7761C17.2348 14.7761 17.4612 14.8448 17.6537 14.9734C17.8462 15.102 17.9962 15.2849 18.0848 15.4988C18.1734 15.7127 18.1966 15.948 18.1514 16.1751C18.1063 16.4022 17.9948 16.6108 17.8311 16.7745C17.6674 16.9382 17.4588 17.0497 17.2317 17.0949C17.0046 17.14 16.7692 17.1168 16.5553 17.0282C16.3414 16.9396 16.1586 16.7896 16.03 16.5971C15.9013 16.4046 15.8327 16.1783 15.8327 15.9467C15.833 15.6364 15.9564 15.3388 16.1759 15.1193C16.3954 14.8998 16.6929 14.7764 17.0033 14.7761ZM13.0176 14.7761C13.2491 14.7761 13.4754 14.8448 13.6679 14.9734C13.8604 15.102 14.0105 15.2849 14.0991 15.4988C14.1877 15.7127 14.2109 15.948 14.1657 16.1751C14.1205 16.4022 14.009 16.6108 13.8453 16.7745C13.6816 16.9382 13.473 17.0497 13.2459 17.0949C13.0189 17.14 12.7835 17.1168 12.5696 17.0282C12.3557 16.9396 12.1729 16.7896 12.0442 16.5971C11.9156 16.4046 11.8469 16.1783 11.8469 15.9467C11.8472 15.6364 11.9707 15.3388 12.1901 15.1193C12.4096 14.8998 12.7072 14.7764 13.0176 14.7761ZM9.03181 14.7761C9.26334 14.7761 9.48967 14.8448 9.68218 14.9734C9.87468 15.102 10.0247 15.2849 10.1133 15.4988C10.2019 15.7127 10.2251 15.948 10.1799 16.1751C10.1348 16.4022 10.0233 16.6108 9.85957 16.7745C9.69585 16.9382 9.48727 17.0497 9.26019 17.0949C9.03311 17.14 8.79774 17.1168 8.58383 17.0282C8.36993 16.9396 8.1871 16.7896 8.05848 16.5971C7.92985 16.4046 7.86119 16.1783 7.86119 15.9467C7.86149 15.6364 7.98492 15.3388 8.20439 15.1193C8.42386 14.8998 8.72144 14.7764 9.03181 14.7761Z" fill="#00B341"/>
<path d="M17.8701 10.3267V8.33373C17.8701 7.04682 17.3589 5.81263 16.4489 4.90265C15.5389 3.99267 14.3047 3.48145 13.0178 3.48145C11.7309 3.48145 10.4967 3.99267 9.58673 4.90265C8.67675 5.81263 8.16553 7.04682 8.16553 8.33373V10.3267H9.26124V8.33373C9.26124 7.33742 9.65702 6.38191 10.3615 5.67741C11.066 4.97292 12.0215 4.57713 13.0178 4.57713C14.0141 4.57713 14.9696 4.97292 15.6741 5.67741C16.3786 6.38191 16.7744 7.33742 16.7744 8.33373V10.3267H17.8701Z" fill="#00B341"/>
</svg>
