<svg width="23" height="26" viewBox="0 0 23 26" fill="none" xmlns="http://www.w3.org/2000/svg">
<path d="M19.2566 0H11.0063V1.83338H19.2566C19.4997 1.83338 19.7328 1.92996 19.9048 2.10187C20.0767 2.27378 20.1732 2.50695 20.1732 2.75007V22.9172C20.1732 23.1604 20.0767 23.3935 19.9048 23.5654C19.7328 23.7373 19.4997 23.8339 19.2566 23.8339H11.0063V25.6673H19.2566C19.9859 25.6673 20.6854 25.3776 21.2011 24.8618C21.7169 24.3461 22.0066 23.6466 22.0066 22.9172V2.75007C22.0066 2.0207 21.7169 1.32121 21.2011 0.805476C20.6854 0.289739 19.9859 0 19.2566 0Z" fill="#00B341"/>
<path d="M16.1214 13.7502V11.9169H2.75609L6.42285 8.2501L5.12115 6.9209L0.537705 11.5043C0.367244 11.6746 0.232016 11.8768 0.139753 12.0994C0.0474894 12.322 0 12.5605 0 12.8015C0 13.0424 0.0474894 13.281 0.139753 13.5035C0.232016 13.7261 0.367244 13.9283 0.537705 14.0986L5.12115 18.682L6.42285 17.417L2.75609 13.7502H16.1214Z" fill="#00B341"/>
</svg>
