<svg width="26" height="24" viewBox="0 0 26 24" fill="none" xmlns="http://www.w3.org/2000/svg">
<path d="M24.5311 1.46367C23.6443 0.576932 22.4565 0.0560034 21.2035 0.00425948C19.9505 -0.0474845 18.7238 0.373739 17.7669 1.18434C16.81 1.99493 16.1928 3.13566 16.0378 4.38013C15.8829 5.6246 16.2014 6.88186 16.9302 7.9024L20.1974 12.4761C20.2883 12.6035 20.4083 12.7073 20.5475 12.7789C20.6866 12.8505 20.8408 12.8879 20.9973 12.8879C21.1538 12.8879 21.308 12.8505 21.4472 12.7789C21.5863 12.7073 21.7064 12.6035 21.7973 12.4761L25.0644 7.9024C25.755 6.94081 26.0806 5.76472 25.9829 4.58487C25.8852 3.40502 25.3705 2.29853 24.5311 1.46367ZM20.9973 6.63604C20.6733 6.63604 20.3565 6.53995 20.0871 6.35993C19.8177 6.1799 19.6077 5.92403 19.4837 5.62466C19.3597 5.32529 19.3272 4.99587 19.3905 4.67806C19.4537 4.36026 19.6097 4.06833 19.8388 3.8392C20.068 3.61007 20.3599 3.45404 20.6777 3.39082C20.9955 3.32761 21.3249 3.36005 21.6243 3.48405C21.9237 3.60806 22.1795 3.81805 22.3596 4.08747C22.5396 4.3569 22.6357 4.67366 22.6357 4.99769C22.6357 5.4322 22.463 5.84891 22.1558 6.15616C21.8485 6.4634 21.4318 6.63602 20.9973 6.63604Z" fill="#00B341"/>
<path d="M20.9973 15.2908C20.8682 15.2908 20.7404 15.3162 20.6212 15.3656C20.5019 15.415 20.3936 15.4874 20.3023 15.5787C20.211 15.67 20.1386 15.7783 20.0892 15.8976C20.0398 16.0168 20.0144 16.1447 20.0144 16.2737V18.3697C20.0144 19.2912 19.6484 20.175 18.9967 20.8266C18.3451 21.4782 17.4614 21.8442 16.5399 21.8442C15.6184 21.8442 14.7346 21.4782 14.083 20.8266C13.4314 20.175 13.0653 19.2912 13.0653 18.3697V9.45475C13.066 8.73984 12.9259 8.0318 12.6528 7.37109C12.3797 6.71039 11.9791 6.10999 11.4738 5.60421C10.9686 5.09844 10.3686 4.6972 9.70817 4.42345C9.04775 4.14969 8.33985 4.00879 7.62494 4.00879C6.91003 4.00879 6.20213 4.14969 5.54171 4.42345C4.88129 4.6972 4.2813 5.09844 3.77604 5.60421C3.27078 6.10999 2.87016 6.71039 2.59709 7.37109C2.32402 8.0318 2.18384 8.73984 2.18457 9.45475V14.0893C2.1852 14.3495 2.28904 14.5989 2.4733 14.7828C2.65756 14.9666 2.90721 15.0698 3.16748 15.0698C3.42775 15.0698 3.67739 14.9666 3.86166 14.7828C4.04592 14.5989 4.14975 14.3495 4.15038 14.0893V9.45475C4.14979 8.99809 4.23923 8.54579 4.41358 8.12372C4.58793 7.70165 4.84377 7.31809 5.16647 6.99498C5.48917 6.67186 5.8724 6.41552 6.29425 6.24063C6.71609 6.06574 7.16828 5.97572 7.62494 5.97572C8.0816 5.97572 8.53378 6.06574 8.95563 6.24063C9.37747 6.41552 9.7607 6.67186 10.0834 6.99498C10.4061 7.31809 10.6619 7.70165 10.8363 8.12372C11.0106 8.54579 11.1001 8.99809 11.0995 9.45475V18.3697C11.0995 19.8125 11.6727 21.1963 12.6929 22.2166C13.7132 23.2369 15.097 23.81 16.5399 23.81C17.9827 23.81 19.3665 23.2369 20.3868 22.2166C21.4071 21.1963 21.9802 19.8125 21.9802 18.3697V16.2737C21.9802 16.1447 21.9548 16.0168 21.9054 15.8976C21.856 15.7783 21.7836 15.67 21.6924 15.5787C21.6011 15.4874 21.4927 15.415 21.3735 15.3656C21.2542 15.3162 21.1264 15.2908 20.9973 15.2908Z" fill="#00B341"/>
<path d="M3.16736 17.4756C2.54092 17.4756 1.92854 17.6614 1.40767 18.0094C0.886799 18.3574 0.480831 18.8521 0.241101 19.4309C0.00137156 20.0096 -0.061352 20.6465 0.0608622 21.2609C0.183076 21.8753 0.484739 22.4397 0.927704 22.8826C1.37067 23.3256 1.93504 23.6272 2.54945 23.7495C3.16386 23.8717 3.80071 23.8089 4.37947 23.5692C4.95823 23.3295 5.4529 22.9235 5.80094 22.4026C6.14897 21.8818 6.33474 21.2694 6.33474 20.643C6.33383 19.8032 5.99983 18.9981 5.40603 18.4043C4.81223 17.8105 4.00712 17.4765 3.16736 17.4756Z" fill="#00B341"/>
</svg>
