<svg width="21" height="21" viewBox="0 0 21 21" fill="none" xmlns="http://www.w3.org/2000/svg">
<path d="M18.375 1.3125H12.25C12.25 1.08044 12.1578 0.857876 11.9937 0.693782C11.8296 0.529687 11.6071 0.4375 11.375 0.4375H9.625C9.39293 0.4375 9.17037 0.529687 9.00628 0.693782C8.84219 0.857876 8.75 1.08044 8.75 1.3125H2.625C2.39294 1.3125 2.17038 1.40469 2.00628 1.56878C1.84219 1.73288 1.75 1.95544 1.75 2.1875C1.75 2.41956 1.84219 2.64212 2.00628 2.80622C2.17038 2.97031 2.39294 3.0625 2.625 3.0625H18.375C18.6071 3.0625 18.8296 2.97031 18.9937 2.80622C19.1578 2.64212 19.25 2.41956 19.25 2.1875C19.25 1.95544 19.1578 1.73288 18.9937 1.56878C18.8296 1.40469 18.6071 1.3125 18.375 1.3125Z" fill="#E30613"/>
<path d="M17.0625 3.9375C16.8304 3.9375 16.6079 4.02969 16.4438 4.19378C16.2797 4.35788 16.1875 4.58044 16.1875 4.8125V18.8125H4.8125V4.8125C4.8125 4.58044 4.72031 4.35788 4.55622 4.19378C4.39212 4.02969 4.16956 3.9375 3.9375 3.9375C3.70544 3.9375 3.48288 4.02969 3.31878 4.19378C3.15469 4.35788 3.0625 4.58044 3.0625 4.8125V19.6875C3.0625 19.9196 3.15469 20.1421 3.31878 20.3062C3.48288 20.4703 3.70544 20.5625 3.9375 20.5625H17.0625C17.2946 20.5625 17.5171 20.4703 17.6812 20.3062C17.8453 20.1421 17.9375 19.9196 17.9375 19.6875V4.8125C17.9375 4.58044 17.8453 4.35788 17.6812 4.19378C17.5171 4.02969 17.2946 3.9375 17.0625 3.9375Z" fill="#E30613"/>
<path d="M9.1875 16.1875V8.3125C9.1875 8.08044 9.09531 7.85788 8.93122 7.69378C8.76712 7.52969 8.54456 7.4375 8.3125 7.4375C8.08044 7.4375 7.85788 7.52969 7.69378 7.69378C7.52969 7.85788 7.4375 8.08044 7.4375 8.3125V16.1875C7.4375 16.4196 7.52969 16.6421 7.69378 16.8062C7.85788 16.9703 8.08044 17.0625 8.3125 17.0625C8.54456 17.0625 8.76712 16.9703 8.93122 16.8062C9.09531 16.6421 9.1875 16.4196 9.1875 16.1875Z" fill="#E30613"/>
<path d="M13.5625 16.1875V8.3125C13.5625 8.08044 13.4703 7.85788 13.3062 7.69378C13.1421 7.52969 12.9196 7.4375 12.6875 7.4375C12.4554 7.4375 12.2329 7.52969 12.0688 7.69378C11.9047 7.85788 11.8125 8.08044 11.8125 8.3125V16.1875C11.8125 16.4196 11.9047 16.6421 12.0688 16.8062C12.2329 16.9703 12.4554 17.0625 12.6875 17.0625C12.9196 17.0625 13.1421 16.9703 13.3062 16.8062C13.4703 16.6421 13.5625 16.4196 13.5625 16.1875Z" fill="#E30613"/>
</svg>
