<svg width="26" height="26" viewBox="0 0 26 26" fill="none" xmlns="http://www.w3.org/2000/svg">
<path d="M13 25C19.6274 25 25 19.6274 25 13C25 6.37258 19.6274 1 13 1C6.37258 1 1 6.37258 1 13C1 19.6274 6.37258 25 13 25Z" stroke="#00B341" stroke-width="1.5" stroke-miterlimit="10" stroke-linecap="round" stroke-linejoin="round"/>
<path d="M12.9995 16.0801C9.28267 16.0801 6.09683 18.204 4.50391 21.3898C6.6278 23.6199 9.70745 24.8942 12.9995 24.8942C16.2915 24.8942 19.3712 23.5137 21.4951 21.3898C19.9021 18.3102 16.7163 16.0801 12.9995 16.0801Z" stroke="#00B341" stroke-width="1.5" stroke-miterlimit="10" stroke-linecap="round" stroke-linejoin="round"/>
<path d="M13.0007 13.3179C15.1121 13.3179 16.8238 11.6063 16.8238 9.49488C16.8238 7.38349 15.1121 5.67188 13.0007 5.67188C10.8894 5.67188 9.17773 7.38349 9.17773 9.49488C9.17773 11.6063 10.8894 13.3179 13.0007 13.3179Z" stroke="#00B341" stroke-width="1.5" stroke-miterlimit="10" stroke-linecap="round" stroke-linejoin="round"/>
</svg>
